<?xml version="1.0" encoding="UTF-8" standalone="no"?>
<!-- Created with Inkscape (http://www.inkscape.org/) -->

<svg
   width="3034.262"
   height="2452.8279"
   viewBox="0 0 802.81511 648.9774"
   version="1.1"
   id="svg5"
   inkscape:version="1.1.2 (0a00cf5339, 2022-02-04)"
   sodipodi:docname="playera.svg"
   xmlns:inkscape="http://www.inkscape.org/namespaces/inkscape"
   xmlns:sodipodi="http://sodipodi.sourceforge.net/DTD/sodipodi-0.dtd"
   xmlns="http://www.w3.org/2000/svg"
   xmlns:svg="http://www.w3.org/2000/svg">
  <sodipodi:namedview
     id="namedview7"
     pagecolor="#505050"
     bordercolor="#eeeeee"
     borderopacity="1"
     inkscape:pageshadow="0"
     inkscape:pageopacity="0"
     inkscape:pagecheckerboard="0"
     inkscape:document-units="mm"
     showgrid="false"
     units="px"
     inkscape:zoom="0.074665393"
     inkscape:cx="1948.694"
     inkscape:cy="917.42636"
     inkscape:window-width="1366"
     inkscape:window-height="704"
     inkscape:window-x="0"
     inkscape:window-y="0"
     inkscape:window-maximized="1"
     inkscape:current-layer="layer1" />
  <defs
     id="defs2" />
  <g
     inkscape:label="Layer 1"
     inkscape:groupmode="layer"
     id="layer1">
    <g
       id="g44620"
       transform="matrix(21.515999,0,0,21.515999,8.8762856e-8,512.34973)">
      <text
         xml:space="preserve"
         style="font-style:normal;font-variant:normal;font-weight:normal;font-stretch:normal;font-size:15.8937px;line-height:1.25;font-family:Ani;-inkscape-font-specification:Ani;fill:#000000;fill-opacity:1;stroke:none;stroke-width:0;stroke-miterlimit:4;stroke-dasharray:none"
         x="-0.47339347"
         y="-2.9115021"
         id="text2470-2"><tspan
           sodipodi:role="line"
           id="tspan2468-1"
           style="font-style:normal;font-variant:normal;font-weight:normal;font-stretch:normal;font-family:Ani;-inkscape-font-specification:Ani;fill:#000000;stroke-width:0;stroke-miterlimit:4;stroke-dasharray:none"
           x="-0.47339347"
           y="-2.9115021">2024</tspan></text>
      <path
         d="m 2.7489659,0 c -0.04101,0 -0.08334,0.0021 -0.127,0.0056 -1.118129,0.08811 -0.821531,1.271852 -0.838729,1.666346 -0.02011,0.288925 -0.07937,0.516731 -0.277813,0.799041 -0.234156,0.278077 -0.56276799,0.727604 -0.71860799,1.196182 -0.07355,0.220133 -0.108479,0.445558 -0.07594,0.658547 a 0.11218333,0.11218333 0 0 0 -0.0291,0.03572 c -0.06879,0.07091 -0.119063,0.15875 -0.175419,0.221986 -0.05265,0.05265 -0.128323,0.07064 -0.210873,0.105833 -0.08281,0.03598 -0.174096,0.07117 -0.2286,0.179917 -0.02381,0.05001 -0.03598,0.104246 -0.03492,0.159279 0,0.05265 0.0071,0.105833 0.01455,0.141817 0.01535,0.105568 0.03069,0.192616 0.01058,0.256645 -0.06588,0.179917 -0.07408,0.302948 -0.02805,0.392642 0.04604,0.08837 0.141552,0.124354 0.248708,0.159015 0.214312,0.05292 0.505354,0.03572 0.73395399,0.15875 0.245004,0.123295 0.493712,0.17727 0.69215,0.124354 0.139171,-0.03069 0.256646,-0.122767 0.319617,-0.250296 0.15531,-7.94e-4 0.325437,-0.07117 0.597958,-0.08837 0.184944,-0.01535 0.416454,0.07064 0.681831,0.05292 0.0066,0.03545 0.01667,0.05239 0.03016,0.08811 l 7.94e-4,7.94e-4 c 0.103453,0.205846 0.294482,0.299508 0.498475,0.283368 0.203994,-0.01588 0.421217,-0.141816 0.597165,-0.345545 0.166952,-0.202407 0.445294,-0.286809 0.629179,-0.397669 0.09208,-0.05265 0.166423,-0.12409 0.171715,-0.22569 0.0061,-0.105833 -0.05292,-0.214577 -0.188913,-0.364066 V 4.98956 l -7.93e-4,-7.94e-4 C 4.9960639,4.935846 4.9748939,4.847214 4.9516139,4.743762 4.9291239,4.637664 4.9034639,4.5358 4.8214389,4.467008 h -7.93e-4 c -0.01561,-0.01429 -0.03254,-0.01773 -0.04974,-0.03572 a 0.09445625,0.09445625 0 0 0 -0.05027,-0.01693 C 4.8346719,4.07622 4.7904859,3.73967 4.6748659,3.436987 4.5338429,3.063925 4.2872519,2.739016 4.0993969,2.515443 3.8887889,2.249537 3.6824139,1.997654 3.6866469,1.624327 3.6935469,1.054943 3.7490869,0.001637 2.7489639,5e-5 Z m 0.139965,0.900906 h 0.0034 c 0.05636,0 0.104775,0.0164 0.154516,0.05239 0.05027,0.03572 0.08731,0.08784 0.115888,0.141023 0.02778,0.06853 0.0418,0.121444 0.04392,0.191559 0,-0.0053 0.0016,-0.01058 0.0016,-0.01588 v 0.02778 a 0.02275417,0.02275417 0 0 1 -0.0011,-0.0056 l -0.0011,-0.0063 a 0.47810208,0.47810208 0 0 1 -0.03969,0.186795 0.25214792,0.25214792 0 0 1 -0.05636,0.08864 0.18785417,0.18785417 0 0 0 -0.02328,-0.01111 c -0.02752,-0.01191 -0.05239,-0.01693 -0.07514,-0.03519 a 0.34713333,0.34713333 0 0 0 -0.05821,-0.01746 c 0.01323,-0.01587 0.03863,-0.03519 0.04842,-0.05239 0.01402,-0.03387 0.0217,-0.06985 0.02328,-0.106362 v -0.0053 a 0.32014583,0.32014583 0 0 0 -0.01614,-0.105834 c -0.01191,-0.03545 -0.02672,-0.05292 -0.04842,-0.08811 -0.02223,-0.01746 -0.04419,-0.03493 -0.07064,-0.03493 h -0.0042 c -0.02461,0 -0.04657,0.0079 -0.06932,0.03493 a 0.21166667,0.21166667 0 0 0 -0.05424,0.08837 0.31220833,0.31220833 0 0 0 -0.02381,0.105833 v 0.005 c 5.29e-4,0.02355 0.0021,0.04736 0.0053,0.07064 -0.05107,-0.01773 -0.115887,-0.03572 -0.160602,-0.05345 a 0.43259375,0.43259375 0 0 1 -0.0048,-0.05292 v -0.0053 a 0.46884167,0.46884167 0 0 1 0.03969,-0.2032 c 0.0217,-0.05821 0.06138,-0.107421 0.113771,-0.141023 a 0.26061458,0.26061458 0 0 1 0.157162,-0.05292 z m -0.783696,0.01561 h 0.0095 c 0.03757,0 0.07144,0.0127 0.105569,0.03572 0.03863,0.03413 0.06985,0.0762 0.09102,0.123031 0.02381,0.05265 0.03704,0.105834 0.04048,0.176477 v 0.0011 c 0.0018,0.03545 0.0016,0.05292 -5.3e-4,0.07038 v 0.02117 c -0.0079,0.0019 -0.01482,0.0048 -0.02196,0.0064 -0.04022,0.01455 -0.0725,0.03572 -0.103981,0.05292 0.0032,-0.02381 0.0034,-0.04763 7.94e-4,-0.07064 v -0.004 c -0.0032,-0.03519 -0.01058,-0.05292 -0.0217,-0.08811 a 0.16218958,0.16218958 0 0 0 -0.04392,-0.07064 0.06561667,0.06561667 0 0 0 -0.04842,-0.01693 h -0.0056 c -0.01879,0.0016 -0.0344,0.01058 -0.04921,0.03492 a 0.14605,0.14605 0 0 0 -0.03175,0.07144 0.24976667,0.24976667 0 0 0 -0.0061,0.08731 v 0.004 c 0.0032,0.03572 0.0098,0.05292 0.02117,0.08837 0.01217,0.03545 0.02593,0.05292 0.04392,0.07091 0.0026,0.0024 0.0053,0.0048 0.009,0.0063 -0.01852,0.01508 -0.03096,0.01852 -0.04657,0.03598 a 0.08043333,0.08043333 0 0 1 -0.03466,0.01799 0.69320833,0.69320833 0 0 1 -0.07276,-0.106362 0.46884167,0.46884167 0 0 1 -0.04101,-0.176477 0.46540208,0.46540208 0 0 1 0.02117,-0.176742 0.37835417,0.37835417 0 0 1 0.07488,-0.141552 c 0.03387,-0.03519 0.06879,-0.05292 0.110596,-0.05292 z m 0.362479,0.451379 c 0.08784,0 0.19394,0.0172 0.321733,0.105569 0.07752,0.05292 0.138377,0.07117 0.278342,0.123825 h 7.94e-4 c 0.06747,0.03598 0.107156,0.07038 0.126471,0.105569 v -0.03466 a 0.15107708,0.15107708 0 0 1 0.0042,0.124354 c -0.03254,0.08202 -0.136525,0.170127 -0.281252,0.222779 v 5.29e-4 c -0.07091,0.03572 -0.132557,0.08811 -0.205052,0.123032 -0.07303,0.03572 -0.155575,0.07726 -0.267759,0.07064 a 0.30136042,0.30136042 0 0 1 -0.11853,-0.01773 0.94350417,0.94350417 0 0 1 -0.0852,-0.05239 c -0.05159,-0.03572 -0.09604,-0.08784 -0.161925,-0.123031 v -0.0013 h -0.0013 c -0.105836,-0.06509 -0.162986,-0.135469 -0.181507,-0.187857 -0.01852,-0.07091 -0.0013,-0.124354 0.05107,-0.15875 0.05927,-0.03572 0.100542,-0.0717 0.127794,-0.0889 0.02752,-0.01958 0.03784,-0.02699 0.04657,-0.03466 h 5.29e-4 V 1.54412 c 0.04472,-0.05345 0.115358,-0.124354 0.221986,-0.159014 0.03678,-0.0095 0.07779,-0.0172 0.123295,-0.0172 z m 0.740833,0.566738 c 0.09472,0.374914 0.316442,0.919427 0.459052,1.183481 0.07567,0.141288 0.226219,0.438944 0.291571,0.8001 0.04127,-0.0013 0.08731,0.0048 0.135732,0.01693 0.17092,-0.442118 -0.144463,-0.91731 -0.288132,-1.049337 -0.05821,-0.05292 -0.06138,-0.08864 -0.03254,-0.08864 0.156104,0.141287 0.361156,0.415925 0.435504,0.729456 0.0344,0.141552 0.04233,0.2921 0.0056,0.441854 0.01773,0.0074 0.03572,0.01588 0.05424,0.01773 0.27305,0.141287 0.373856,0.248179 0.325437,0.406665 v -0.01138 c -0.01588,-7.94e-4 -0.03175,0 -0.04763,0 h -0.0042 c 0.03994,-0.123561 -0.04816,-0.218282 -0.281789,-0.32385 -0.242093,-0.105834 -0.435504,-0.0889 -0.468312,0.123031 -0.0021,0.01138 -0.0034,0.01746 -0.0048,0.03572 -0.01799,0.0061 -0.03678,0.01402 -0.0553,0.01693 -0.113773,0.07091 -0.175157,0.177006 -0.209817,0.31406 -0.0344,0.141023 -0.04498,0.305859 -0.05424,0.494507 v 7.93e-4 c -0.0053,0.08837 -0.04498,0.221721 -0.0844,0.357188 -0.396875,0.283633 -0.947208,0.406929 -1.414991,0.08837 a 0.69982292,0.69982292 0 0 0 -0.106363,-0.141023 0.38364583,0.38364583 0 0 0 -0.07276,-0.08811 c 0.04815,0 0.08943,-0.0079 0.123031,-0.01773 a 0.16271875,0.16271875 0 0 0 0.08308,-0.08837 c 0.02858,-0.07064 0,-0.184415 -0.09128,-0.307711 -0.09128,-0.12356 -0.246327,-0.26326 -0.473075,-0.402431 -0.166688,-0.105833 -0.260879,-0.230188 -0.304271,-0.369358 -0.04366,-0.141288 -0.03784,-0.287073 -0.004,-0.43524 0.06482,-0.283104 0.230982,-0.558271 0.337079,-0.731044 0.02831,-0.0172 0.0098,0.03572 -0.10795,0.257704 -0.104775,0.198702 -0.301625,0.660665 -0.03228,1.019705 a 2.1492104,2.1492104 0 0 1 0.171186,-0.760942 c 0.149225,-0.338138 0.461168,-0.9271 0.485775,-1.393825 0.0127,0.0095 0.05741,0.03572 0.07646,0.05345 0.05768,0.03519 0.100541,0.08811 0.156104,0.123031 0.05556,0.05318 0.126206,0.08864 0.231775,0.08864 0.01032,7.94e-4 0.01984,0.0016 0.0291,0.0016 0.109008,0 0.193146,-0.03545 0.263789,-0.07091 0.07673,-0.03545 0.137584,-0.08837 0.195792,-0.105833 h 0.0013 c 0.123563,-0.03572 0.22093,-0.106365 0.276228,-0.185211 z m 0.578115,2.370137 c 0.0098,0.15875 0.09075,0.329407 0.233362,0.364332 0.155575,0.03545 0.379413,-0.08811 0.473869,-0.202407 l 0.05583,-0.0026 c 0.08334,-0.0019 0.152665,0.0026 0.224102,0.07091 l 7.94e-4,7.99e-4 c 0.05503,0.05265 0.0807,0.140229 0.103452,0.231775 0.02249,0.105833 0.04075,0.206375 0.108215,0.282045 0.128587,0.139436 0.170656,0.239713 0.168275,0.301625 l 7.94e-4,-0.0019 v 0.0048 l -7.94e-4,-0.0032 c -0.004,0.06932 -0.04895,0.104771 -0.131763,0.157423 -0.166687,0.106098 -0.461962,0.188383 -0.650081,0.415396 -0.163512,0.194998 -0.362479,0.301625 -0.538692,0.315119 -0.175683,0.01402 -0.327289,-0.05292 -0.416454,-0.237596 l -0.0013,-7.94e-4 c -0.05556,-0.105833 -0.03175,-0.271198 0.01482,-0.447146 0.04657,-0.176742 0.113242,-0.3556 0.122502,-0.501914 0.0098,-0.188913 0.02011,-0.353219 0.05159,-0.479955 0.03175,-0.123031 0.08149,-0.210873 0.169598,-0.26035 l 0.0119,-0.0058 z M 0.92545791,4.31774 h 0.0027 c 0.01402,0 0.02778,0.0013 0.04154,0.0037 0.09948,0.01455 0.18679599,0.08811 0.27066899,0.198967 l 0.24077,0.440267 7.94e-4,7.93e-4 c 0.06429,0.141027 0.199491,0.281521 0.314585,0.433127 0.114829,0.158221 0.203729,0.299244 0.192881,0.415396 v 0.0016 c -0.01508,0.196847 -0.127,0.303739 -0.297656,0.342368 -0.170656,0.03572 -0.402167,5.29e-4 -0.633677,-0.122766 -0.25611699,-0.141817 -0.56038699,-0.12409 -0.75591399,-0.15928 -0.09763,-0.01746 -0.161396,-0.05292 -0.191294,-0.105833 -0.0291,-0.05292 -0.0299,-0.159279 0.03254,-0.325437 v -0.0011 l 5.29e-4,-7.92e-4 c 0.03096,-0.08837 0.0079,-0.198967 -0.0071,-0.295805 -0.01455,-0.106098 -0.02196,-0.187854 0.01138,-0.248708 0.04233,-0.08837 0.104775,-0.105833 0.182563,-0.141023 0.07779,-0.03572 0.169333,-0.05345 0.242093,-0.124354 h 5.29e-4 v -5.29e-4 c 0.06773,-0.07091 0.11774,-0.159015 0.176742,-0.221721 0.05027,-0.05318 0.100542,-0.0889 0.175419,-0.0889 z M 2.8196099,1.916911 c -0.115094,0.05318 -0.250031,0.141552 -0.3937,0.141552 -0.143404,0 -0.256646,-0.07064 -0.338667,-0.123296 -0.04075,-0.03545 -0.07408,-0.07091 -0.09869,-0.08864 -0.04339,-0.03545 -0.0381,-0.08811 -0.01958,-0.08811 0.02884,0.0042 0.03413,0.03545 0.05265,0.05292 0.0254,0.01746 0.05688,0.05292 0.09525,0.08811 0.07726,0.05292 0.179917,0.123561 0.308769,0.123561 0.128323,0 0.278606,-0.07064 0.369888,-0.123296 0.05159,-0.03572 0.117739,-0.08837 0.17145,-0.12356 0.04128,-0.03598 0.03942,-0.07064 0.07382,-0.07064 0.03387,0.0042 0.009,0.03545 -0.03889,0.08784 A 2.1423312,2.1423312 0 0 1 2.8193469,1.917175 Z M 2.5333309,1.498075 v -0.0058 c -0.0016,-0.0053 0.0034,-0.01111 0.0077,-0.01323 0.01958,-0.01138 0.04763,-0.0071 0.06879,0.0011 0.01667,0 0.04233,0.01773 0.03969,0.03572 -0.0016,0.01297 -0.02249,0.01746 -0.03572,0.01746 -0.01455,0 -0.02434,-0.01138 -0.03731,-0.01799 -0.01376,-0.0048 -0.03863,-0.0021 -0.04313,-0.0172 z m -0.145786,0 c -0.0053,0.01535 -0.0299,0.01297 -0.04392,0.01746 -0.01243,0.0066 -0.02275,0.01799 -0.03704,0.01799 -0.01323,0 -0.0344,-0.0053 -0.03598,-0.01799 -0.0026,-0.01746 0.02328,-0.03519 0.03969,-0.03519 0.02117,-0.0082 0.04868,-0.01243 0.06853,-0.0013 0.005,0.0024 0.0095,0.0079 0.0079,0.01323 v 0.0053 h 7.94e-4 z"
         id="path37639"
         style="stroke-width:0.264583" />
      <path
         d="m 8.037893,-17.660784 v -0.546829 l -0.01079,0.005 c -0.123057,0.05955 -0.256927,0.09352 -0.39425,0.09992 a 0.58374347,0.58374347 0 0 1 -0.396711,-0.116658 0.51089859,0.51089859 0 0 1 -0.173247,-0.245114 0.59555615,0.59555615 0 0 1 -0.01135,-0.328294 c 0.0256,-0.110741 0.0876,-0.209674 0.175721,-0.280059 0.07875,-0.06595 0.174734,-0.1073 0.276614,-0.119113 a 0.91056107,0.91056107 0 0 1 0.522219,0.09746 l 0.01172,0.0063 v -0.549782 l -0.0251,-0.0069 a 1.4086626,1.4086626 0 0 0 -0.497609,-0.06498 1.1517367,1.1517367 0 0 0 -0.444453,0.101384 c -0.14125,0.06498 -0.265785,0.16095 -0.363732,0.281043 a 1.0931655,1.0931655 0 0 0 -0.01968,1.331388 c 0.145194,0.186049 0.348967,0.317466 0.578331,0.3721 0.241667,0.05906 0.495146,0.05021 0.731893,-0.0256 l 0.04037,-0.01135 m -5.411686,0 v -0.546829 l -0.01079,0.005 c -0.123057,0.05955 -0.256929,0.09352 -0.39425,0.09991 a 0.58226688,0.58226688 0 0 1 -0.396709,-0.116657 0.50696102,0.50696102 0 0 1 -0.172763,-0.245114 0.5916186,0.5916186 0 0 1 -0.01172,-0.328294 c 0.0256,-0.110742 0.08712,-0.209675 0.17572,-0.28006 0.07874,-0.06595 0.174735,-0.1073 0.276614,-0.119112 a 0.91056107,0.91056107 0 0 1 0.52222,0.09746 l 0.0119,0.0063 v -0.549783 l -0.0251,-0.0069 a 1.4086626,1.4086626 0 0 0 -0.497609,-0.06498 1.1537055,1.1537055 0 0 0 -0.444453,0.101384 1.0237659,1.0237659 0 0 0 -0.364223,0.281044 1.0946421,1.0946421 0 0 0 -0.02018,1.331388 1.0385318,1.0385318 0 0 0 0.578821,0.372099 c 0.241667,0.05906 0.494656,0.05019 0.731894,-0.0256 l 0.04085,-0.01135 m 1.931374,-0.453802 -0.002,0.47103 0.03445,0.006 c 0.108286,0.02018 0.217059,0.03397 0.326819,0.04184 0.09597,0.0093 0.192448,0.01079 0.288917,0.006 0.09205,-0.0069 0.183088,-0.02411 0.271199,-0.05119 0.103357,-0.02952 0.199341,-0.08023 0.281045,-0.150123 a 0.5709464,0.5709464 0 0 0 0.163908,-0.23527 0.64477568,0.64477568 0 0 0 -0.0033,-0.472507 0.52566444,0.52566444 0 0 0 -0.146682,-0.20374 0.6206581,0.6206581 0 0 0 -0.215582,-0.125512 l -0.355365,-0.131912 a 0.19097172,0.19097172 0 0 1 -0.09696,-0.09253 0.12058782,0.12058782 0 0 1 0.0039,-0.107784 0.18801855,0.18801855 0 0 1 0.07581,-0.06989 0.39277175,0.39277175 0 0 1 0.126498,-0.03642 c 0.0753,-0.01079 0.151593,-0.01042 0.226411,0.0024 0.0886,0.0099 0.176205,0.0251 0.262339,0.04725 l 0.0187,0.0039 v -0.434608 l -0.03397,-0.0074 a 2.3374348,2.3374348 0 0 0 -0.267268,-0.04773 1.3998031,1.3998031 0 0 0 -0.351427,-0.0015 c -0.147649,0.01321 -0.287935,0.07037 -0.404092,0.162419 -0.07874,0.06202 -0.138311,0.144208 -0.172763,0.238222 -0.05119,0.142738 -0.05168,0.299255 0,0.442485 0.02658,0.07138 0.0689,0.134869 0.124043,0.187526 0.04775,0.04578 0.101886,0.08514 0.16095,0.116155 0.07728,0.04135 0.15948,0.07333 0.244621,0.09597 0.02805,0.0084 0.05611,0.0173 0.08367,0.02658 l 0.04184,0.01525 0.01191,0.0048 c 0.04133,0.0147 0.07973,0.0384 0.111244,0.0689 0.02215,0.02067 0.03938,0.04626 0.04971,0.07432 a 0.15996342,0.15996342 0 0 1 4.91e-4,0.07925 0.16685416,0.16685416 0 0 1 -0.0817,0.09746 0.42131906,0.42131906 0 0 1 -0.135353,0.04232 1.0001406,1.0001406 0 0 1 -0.210167,0.01042 2.5633525,2.5633525 0 0 1 -0.274153,-0.03642 4.5257345,4.5257345 0 0 1 -0.141268,-0.03298 z m -1.218182,0.489743 h 0.516806 v -2.050978 H 3.339567 Z m 5.986079,-1.445086 a 0.53895371,0.53895371 0 0 1 0.758471,0.07776 0.53846152,0.53846152 0 0 1 -0.07727,0.758473 l -0.0084,0.0069 a 0.5394459,0.5394459 0 0 1 -0.672824,-0.843122 m -0.750598,0.420334 a 1.079384,1.079384 0 0 0 1.312192,1.037055 1.0528055,1.0528055 0 0 0 0.345029,-1.937771 1.0862747,1.0862747 0 0 0 -1.657221,0.900716 m 2.726268,-2.674589 a 0.25594148,0.25594148 0 0 0 0.511391,0 v -0.568486 a 0.25594148,0.25594148 0 0 0 -0.511391,0 v 0.568486 m -1.399803,0 a 0.25692588,0.25692588 0 0 0 0.512375,0 v -1.274293 a 0.25643369,0.25643369 0 0 0 -0.511882,0 v 1.274293 m -1.420967,0.513361 a 0.25643369,0.25643369 0 0 0 0.511391,0 v -2.756787 a 0.25594148,0.25594148 0 0 0 -0.511391,0 v 2.756787 m -1.396851,-0.513361 a 0.25643369,0.25643369 0 0 0 0.511884,0 v -1.274293 a 0.25594148,0.25594148 0 0 0 -0.511391,0 v 1.274293 m -1.427366,0 a 0.25692588,0.25692588 0 0 0 0.51139,0 v -0.568486 a 0.25594148,0.25594148 0 0 0 -0.51139,0 v 0.568486 m -1.4126,0 a 0.25594148,0.25594148 0 0 0 0.51139,0 v -1.274293 a 0.25594148,0.25594148 0 0 0 -0.51139,0 v 1.274293 m -1.420968,0.513361 a 0.25594148,0.25594148 0 0 0 0.511391,0 v -2.756787 a 0.25594148,0.25594148 0 0 0 -0.511391,0 v 2.756787 m -1.40817,-0.513361 a 0.25692588,0.25692588 0 0 0 0.511882,0 v -1.274293 a 0.25594148,0.25594148 0 0 0 -0.511391,0 v 1.274293 m -1.416045,0 a 0.25643369,0.25643369 0 0 0 0.511391,0 v -0.568486 a 0.25594148,0.25594148 0 0 0 -0.511391,0 v 0.568486"
         id="path37650"
         style="stroke-width:0.492195" />
      <path
         d="m 24.952763,0.047559 0.238125,0.05292 0.193146,0.06879 0.156104,0.07938 0.119062,0.08467 0.08996,0.08996 0.06615,0.08996 0.04233,0.08731 0.02646,0.07937 0.01058,0.06879 0.0053,0.05292 -0.0026,0.0344 v 1.412875 l -0.01322,0.166688 -0.0344,0.145521 -0.05556,0.121708 -0.06879,0.100542 -0.07937,0.08202 -0.08731,0.06615 -0.0926,0.05027 -0.0926,0.03704 -0.08731,0.02646 -0.07937,0.01852 -0.06879,0.01058 -0.05556,0.0053 h -1.579563 l -0.182562,0.01323 -0.156104,0.03704 -0.132292,0.05821 -0.108479,0.07144 -0.08731,0.08467 -0.07144,0.0926 -0.05292,0.09525 -0.03969,0.0979 -0.02646,0.0926 -0.01852,0.08467 -0.01058,0.07144 -0.0053,0.05556 v 0.809625 h -0.590023 l -0.05556,-0.0079 -0.07408,-0.01852 -0.08467,-0.03175 -0.0926,-0.04762 -0.09525,-0.06879 -0.09525,-0.09525 -0.0926,-0.121707 -0.08467,-0.156104 -0.07408,-0.193146 -0.05556,-0.232834 -0.03704,-0.277812 -0.01323,-0.325438 0.01588,-0.322791 0.04233,-0.275167 0.0635,-0.230187 0.08467,-0.187855 0.09525,-0.150812 0.105834,-0.116417 0.111125,-0.08731 0.111125,-0.0635 0.105833,-0.04233 0.09525,-0.02646 0.08467,-0.01323 0.0635,-0.0026 h 0.04233 l 0.01588,0.0026 h 2.159 V 1.431404 h -1.545167 l -0.0026,-0.727604 -0.0053,-0.0979 0.01323,-0.08996 0.0291,-0.08202 0.04498,-0.07408 0.06615,-0.06879 L 23.045257,0.2302 23.145799,0.17728 23.262216,0.12966 23.397153,0.08997 23.550612,0.05822 23.719948,0.03176 23.907802,0.01588 24.111531,0.0053 24.333781,0 24.669802,0.01323 Z m -1.666875,0.523875 -0.06085,0.08731 -0.02117,0.108479 0.02117,0.10848 0.06085,0.08996 0.08731,0.05821 0.10848,0.02381 0.108479,-0.02381 0.08731,-0.05821 0.06085,-0.08996 0.02117,-0.10848 -0.02117,-0.108479 -0.06085,-0.08731 -0.08731,-0.05821 -0.108479,-0.02381 -0.10848,0.02381 z m 3.463396,1.045104 0.07408,0.01588 0.08467,0.03175 0.0926,0.04762 0.09525,0.07144 0.09525,0.0926 0.0926,0.124355 0.08467,0.156104 0.07408,0.193146 0.05556,0.232834 0.03704,0.275166 0.01323,0.325438 -0.01588,0.325437 -0.04233,0.275167 -0.0635,0.227542 -0.08467,0.187854 -0.09525,0.150812 -0.105833,0.119063 -0.111125,0.08731 -0.111125,0.0635 -0.105833,0.04233 -0.09525,0.02381 -0.08467,0.01323 -0.0635,0.0053 -0.04233,-0.0026 H 24.352143 V 4.91859 h 1.545166 l 0.0026,0.73025 0.0053,0.09525 -0.01323,0.08996 -0.0291,0.08202 -0.04498,0.07673 -0.06615,0.06615 -0.08202,0.0635 -0.100544,0.05292 -0.116417,0.04498 -0.134937,0.03969 -0.153458,0.0344 -0.169334,0.02381 -0.187854,0.01852 -0.203729,0.01058 -0.22225,0.0027 L 24.045185,6.33947 23.762081,6.30243 23.523956,6.24951 23.33081,6.18336 23.174706,6.10399 23.055643,6.01668 l -0.08996,-0.08996 -0.06615,-0.08996 -0.04233,-0.08731 -0.02646,-0.07937 -0.01058,-0.06615 -0.0053,-0.05292 0.0026,-0.0344 V 4.103729 l 0.01323,-0.169333 0.0344,-0.142875 0.05556,-0.121708 0.06879,-0.100542 0.07938,-0.08467 0.08731,-0.0635 0.0926,-0.05292 0.0926,-0.03704 0.08731,-0.02646 0.07937,-0.01588 0.06879,-0.01058 0.05556,-0.0053 0.0344,-0.0026 h 1.545167 l 0.182562,-0.01323 0.156105,-0.03704 0.132291,-0.05556 0.108479,-0.07408 0.08731,-0.08467 0.07144,-0.0926 0.05292,-0.09525 0.03969,-0.09525 0.02646,-0.0926 0.01852,-0.08467 0.01058,-0.07408 0.0053,-0.05556 V 1.606106 h 0.55298 l 0.03704,0.0026 z m -1.711854,3.770313 -0.06086,0.08731 -0.02117,0.108479 0.02117,0.108479 0.06086,0.08731 0.08731,0.06085 0.108479,0.02117 0.108479,-0.02117 0.08731,-0.06085 0.06085,-0.08731 0.02117,-0.108479 -0.02117,-0.108479 -0.06085,-0.08731 -0.08731,-0.06085 -0.108479,-0.02117 -0.108479,0.02117 z"
         id="path37661"
         style="stroke-width:0.264583" />
      <path
         d="m 31.207604,-23.8125 c -0.428625,0 -0.780521,0.34925 -0.780521,0.780521 v 4.788958 c 0,0.431271 0.34925,0.780521 0.780521,0.780521 h 4.788959 c 0.428625,0 0.78052,-0.34925 0.78052,-0.780521 v -4.788958 c -6.3e-5,-0.431271 -0.34925,-0.780521 -0.78052,-0.780521 z m 0,0.288396 h 4.788959 c 0.275166,0 0.489479,0.216429 0.489479,0.492125 v 3.704166 h -1.394354 c -0.08864,-0.210608 -0.67998,-1.711854 0.07488,-2.883958 a 0.136525,0.13678958 0 0 0 -0.117211,-0.210079 c -1.386416,0.02188 -2.169583,0.844021 -2.577041,1.643062 -0.357188,0.6985 -0.431271,1.299105 -0.447146,1.463146 h -1.309691 v -3.704166 c 0,-0.275167 0.216165,-0.492125 0.489479,-0.492125 z m 3.598334,1.386416 c -0.693209,1.386417 0.06562,3.01625 0.06562,3.01625 a 0.136525,0.13678958 0 0 0 0.124089,0.07964 h 1.486958 v 0.806979 c 0,0.275167 -0.216164,0.492125 -0.489479,0.492125 h -4.788958 c -0.275167,0 -0.489479,-0.216429 -0.489479,-0.492125 v -0.806979 h 1.426104 a 0.136525,0.13678958 0 0 0 0.135996,-0.126206 c 0,0 0.0598,-0.740834 0.439208,-1.486959 0.354542,-0.693208 0.971021,-1.367895 2.092854,-1.473729 z"
         id="path37672"
         style="stroke-width:0.264583" />
      <path
         d="m 37.312225,1.7082577 2.12e-4,-0.0032 a 0.23495,0.23495 0 0 0 -0.07189,-0.16891 c -0.0022,-0.0022 -0.0048,-0.0041 -0.0071,-0.0062 -0.0049,-0.0044 -0.0098,-0.0088 -0.01513,-0.01281 -0.0051,-0.0039 -0.01058,-0.0073 -0.01606,-0.01074 -0.0025,-0.0016 -0.0048,-0.0035 -0.0074,-0.005 L 34.65236,0.03348372 a 0.23574375,0.23574375 0 0 0 -0.244025,0.0011 L 31.867726,1.5013017 c -0.0028,0.0016 -0.0054,0.0037 -0.0081,0.0054 -0.0019,0.0012 -0.004,0.0021 -0.0059,0.0034 -0.0019,0.0012 -0.0034,0.0028 -0.0053,0.0041 a 0.23201312,0.23201312 0 0 0 -0.03889,0.03527 l -6.88e-4,7.94e-4 a 0.23473833,0.23473833 0 0 0 -0.05869,0.154702 l 2.38e-4,0.0037 c -5.2e-5,0.0023 -3.96e-4,0.0047 -3.96e-4,0.007 v 2.92915 c 0,0.0867 0.04768,0.16637 0.124089,0.207327 l 2.53963,1.466242 c 0.002,0.0012 0.0042,0.002 0.0062,0.0031 a 0.23161625,0.23161625 0 0 0 0.04392,0.01818 c 0.0035,0.0011 0.007,0.0022 0.01061,0.0031 a 0.23264812,0.23264812 0 0 0 0.01905,0.0038 c 0.0031,5.02e-4 0.0061,0.0012 0.0092,0.0016 a 0.22092708,0.22092708 0 0 0 0.05707,0 c 0.0031,-3.97e-4 0.0061,-0.0011 0.0092,-0.0016 a 0.238125,0.238125 0 0 0 0.01905,-0.0038 c 0.0036,-9e-4 0.0071,-0.002 0.01058,-0.0031 a 0.23680208,0.23680208 0 0 0 0.01709,-0.0057 0.24167042,0.24167042 0 0 0 0.02685,-0.01243 c 0.0021,-0.0011 0.0042,-0.0019 0.0062,-0.0031 l 2.539639,-1.466244 a 0.23516167,0.23516167 0 0 0 0.12409,-0.207327 v -2.930922 c 0,-0.0019 -3.18e-4,-0.0038 -3.71e-4,-0.0056 z m -4.565729,-0.09906 1.729502,-0.99853698 a 0.11064875,0.11064875 0 0 1 0.110649,0 l 1.729475,0.99853698 a 0.11064875,0.11064875 0 0 1 0,0.191638 l -1.729502,0.998537 a 0.11064875,0.11064875 0 0 1 -0.110649,0 l -1.729475,-0.998537 a 0.11064875,0.11064875 0 0 1 0,-0.191638 z m 1.485212,3.795422 a 0.11038417,0.11038417 0 0 1 -0.165629,0.09559 l -1.726062,-0.99658 a 0.11041062,0.11041062 0 0 1 -0.05519,-0.09559 v -1.993 a 0.11038417,0.11038417 0 0 1 0.165576,-0.09559 l 1.726142,0.996579 a 0.11038417,0.11038417 0 0 1 0.05519,0.09562 v 1.992974 z m 2.546086,-0.99658 a 0.11041062,0.11041062 0 0 1 -0.05519,0.09559 l -1.726116,0.99658 a 0.11038417,0.11038417 0 0 1 -0.165602,-0.09559 v -1.992974 c 0,-0.03942 0.02106,-0.07588 0.05522,-0.09562 l 1.726114,-0.99658 a 0.11038417,0.11038417 0 0 1 0.165577,0.09559 z"
         id="path37683"
         style="stroke-width:0.264583" />
      <path
         d="m 24.497554,-19.272753 z m 1.605836,-4.238122 a 2.2275271,2.2275271 0 0 0 -1.182555,0.825394 5.6694123,5.6694123 0 0 1 0.793697,-1.127019 3.285781,3.285781 0 0 0 -1.058228,1.153451 l 0.169334,-0.674608 a 3.8704308,3.8704308 0 0 0 -0.502656,1.415362 l 0.296281,0.127 a 8.7646933,8.7646933 0 0 1 1.484153,-1.719607 z m 0.216958,3.457734 c -0.216958,-0.402141 -0.772504,-0.796317 -1.35718,-1.161415 -0.134937,-0.07937 -0.161396,-0.37301 -0.140229,-0.50001 l -0.134911,-0.0635 a 1.6852106,1.6852106 0 0 0 0.04233,0.632301 c 0.0635,0.198438 0.264557,0.423281 0.402114,0.740754 a 4.8043042,4.8043042 0 0 1 0.1905,0.772504 3.4841921,3.4841921 0 0 1 -0.142875,1.619065 1.1269927,1.1269927 0 0 1 -0.378302,0.507947 l -0.0635,0.04233 c 1.100535,0.0344 2.336007,-1.224888 1.582024,-2.590006 z m -1.428617,1.267195 a 1.7513565,1.7513565 0 0 0 -0.111125,-0.529087 3.2831352,3.2831352 0 0 0 -0.198385,-0.380974 1.648169,1.648169 0 0 1 -0.04233,-0.547634 1.8518717,1.8518717 0 0 0 0.08467,0.513238 2.9312658,2.9312658 0 0 1 0.182536,0.343932 2.3809854,2.3809854 0 0 1 0.156078,0.600525 2.7593131,2.7593131 0 0 1 -0.0926,0.793671 1.3518621,1.3518621 0 0 1 -0.105833,0.264583 1.2830969,1.2830969 0 0 0 0.185208,-0.402167 3.285781,3.285781 0 0 0 0.09525,-1.185174 3.0714685,3.0714685 0 0 0 -0.121708,-0.50001 c -0.116428,-0.3175 -0.283089,-0.589968 -0.304256,-0.653468 a 4.2884196,4.2884196 0 0 1 -0.103187,-0.888894 3.7857642,3.7857642 0 0 0 0.116416,0.825421 c 0.02117,0.0635 0.211667,0.365072 0.343932,0.682545 a 1.9762258,1.9762258 0 0 1 0.127,0.457677 2.8360158,2.8360158 0 0 1 -0.140229,1.365091 1.0582275,1.0582275 0 0 1 -0.0926,0.216958 0.98414417,0.98414417 0 0 0 0.211667,-0.373062 4.2698987,4.2698987 0 0 0 0,-2.145507 c -0.111125,-0.33864 -0.373036,-0.634947 -0.436536,-0.838649 a 2.0317883,2.0317883 0 0 1 -0.02117,-0.632275 l -0.568775,-0.264584 c 0.148167,0.381 0.174599,0.677281 0.02117,0.793698 -0.597905,0.494717 -1.587341,1.058201 -1.587341,1.880975 0,0.878311 0.529114,1.82806 1.865101,1.899497 a 3.4392129,3.4392129 0 0 1 -0.449739,-0.148167 0.91270667,0.91270667 0 0 1 -0.346552,-0.238072 l -0.03439,-0.03704 a 2.4709437,2.4709437 0 0 1 -0.529114,-0.963004 0.71694146,0.71694146 0 0 1 -0.02117,-0.40214 1.7672315,1.7672315 0 0 1 0.867754,-1.058201 2.6720271,2.6720271 0 0 0 0.264557,-0.161396 c 0.124328,-0.07673 0.203703,-0.404759 0.285697,-0.669316 -0.04233,0.203729 -0.08996,0.597905 -0.280432,0.746045 -0.07673,0.05821 -0.161369,0.113771 -0.246036,0.169334 -0.338614,0.23278 -0.671962,0.449739 -0.838623,1.00793 a 0.74604562,0.74604562 0 0 0 0.02117,0.365099 2.4656521,2.4656521 0 0 0 0.515885,0.928581 c 0,0 0.0344,0.0344 0.0344,0.04233 a 0.79367062,0.79367062 0 0 0 0.513212,0.304245 c -0.07673,-0.04233 -0.140203,-0.0926 -0.195765,-0.127 a 1.153451,1.153451 0 0 1 -0.529114,-0.952394 0.9788525,0.9788525 0 0 1 0.576739,-0.896832 0.9471025,0.9471025 0 0 0 0.444447,-0.629655 0.82542062,0.82542062 0 0 1 -0.420635,0.661405 1.0582275,1.0582275 0 0 0 -0.555572,0.838623 1.4973829,1.4973829 0 0 0 0.50001,0.899478 1.0793942,1.0793942 0 0 0 0.420635,0.1905 0.76456646,0.76456646 0 0 1 -0.126974,-0.132292 1.3227844,1.3227844 0 0 1 -0.119063,-0.264557 0.79367062,0.79367062 0 0 1 -0.07144,-0.264556 0.95239417,0.95239417 0 0 1 0.169333,-0.626984 0.75133729,0.75133729 0 0 0 0.238125,-0.357161 0.75927479,0.75927479 0 0 1 -0.1905,0.399495 0.79367062,0.79367062 0 0 0 -0.148166,0.592587 1.0741025,1.0741025 0 0 0 0.07673,0.246063 1.0582275,1.0582275 0 0 0 0.134937,0.26453 c 0.04762,0.05556 0.06879,0.0979 0.145495,0.127 a 1.7143148,1.7143148 0 0 0 0.129646,-0.621718 2.5185687,2.5185687 0 0 0 0,-0.465614 c -0.0344,-0.21164 -0.105834,-0.42328 -0.105834,-0.592587 0.03175,0.156078 0.113771,0.365072 0.161396,0.58465 a 1.4894454,1.4894454 0 0 1 0.0291,0.457676 c 0,0.148167 -0.02117,0.264583 -0.04233,0.394203 a 0.52911375,0.52911375 0 0 1 -0.119062,0.246036 0.84923312,0.84923312 0 0 0 0.293661,-0.529114 2.0899702,2.0899702 0 0 0 0.08467,-0.624364 z"
         id="path37694"
         style="stroke-width:0.264583" />
      <path
         d="M 15.752762,1.296458 13.748014,0.106362 C 13.628423,0.035452 13.495073,0 13.361458,0 13.227843,0 13.094493,0.03545 12.974637,0.106627 l -2.004748,1.189831 c -0.239183,0.142081 -0.386556,0.404548 -0.386556,0.68871 v 2.379927 c 0,0.283898 0.147373,0.54663 0.386821,0.688711 l 2.004748,1.189831 C 13.094493,6.314547 13.227843,6.35 13.361458,6.35 c 0.133615,0 0.266965,-0.03545 0.386556,-0.106363 L 15.752762,5.053806 C 15.991945,4.911725 16.139583,4.649258 16.139583,4.365095 V 1.985168 c 0,-0.284162 -0.147373,-0.546629 -0.386821,-0.68871 z m -1.552575,3.716337 0.0034,0.170921 c 2.65e-4,0.02064 -0.01323,0.04419 -0.02937,0.05239 l -0.101335,0.05821 c -0.01614,0.0082 -0.02937,-0.0018 -0.02963,-0.02249 l -0.0018,-0.16801 c -0.08678,0.03598 -0.174625,0.04472 -0.230717,0.02222 -0.01058,-0.0042 -0.01508,-0.01984 -0.01085,-0.03757 l 0.03677,-0.154516 c 0.0029,-0.01217 0.0095,-0.02434 0.01826,-0.03202 0.0032,-0.0029 0.0063,-0.0053 0.0095,-0.0069 0.0058,-0.0029 0.01138,-0.0037 0.0164,-0.0016 0.06059,0.02037 0.137848,0.01085 0.212195,-0.02672 0.09445,-0.04789 0.157688,-0.144194 0.156629,-0.239974 -7.94e-4,-0.08678 -0.04789,-0.123031 -0.162189,-0.123825 -0.145521,2.65e-4 -0.281517,-0.02831 -0.283634,-0.242623 -0.0019,-0.176477 0.08996,-0.360097 0.235215,-0.47625 l -0.0019,-0.172508 c -2.65e-4,-0.02117 0.0127,-0.04445 0.02937,-0.05292 l 0.0979,-0.06244 c 0.01614,-0.0082 0.02937,0.0018 0.02963,0.02302 l 0.0016,0.172773 c 0.07223,-0.02884 0.135202,-0.03651 0.192087,-0.02328 0.01244,0.0032 0.01773,0.02011 0.0127,0.03995 l -0.0381,0.152929 c -0.0029,0.01164 -0.0095,0.02328 -0.0172,0.03069 -0.0032,0.0032 -0.0066,0.0056 -0.01005,0.0074 -0.005,0.0026 -0.01005,0.0034 -0.01508,0.0024 -0.02593,-0.0058 -0.08784,-0.01931 -0.184943,0.0299 -0.101865,0.05159 -0.137584,0.140229 -0.13679,0.205846 7.94e-4,0.07858 0.04101,0.102394 0.180181,0.104775 0.185209,0.0032 0.265377,0.08414 0.267229,0.270669 0.0018,0.182298 -0.09578,0.379148 -0.245533,0.499533 z m 1.05119,-0.287602 c 0,0.01588 -0.0021,0.03069 -0.01535,0.03836 l -0.506942,0.307975 c -0.01323,0.0077 -0.02381,0.0011 -0.02381,-0.01482 V 4.926004 c 0,-0.01588 0.0098,-0.02461 0.02302,-0.03228 l 0.499269,-0.298715 c 0.01323,-0.0077 0.02381,-0.0011 0.02381,0.01482 z m 0.348191,-2.92682 -1.896533,1.17131 C 13.466498,3.10806 13.292137,3.263106 13.292137,3.548327 v 2.337064 c 0,0.170657 0.06879,0.281252 0.174625,0.313267 -0.03466,0.0061 -0.06985,0.01032 -0.105304,0.01032 -0.111125,0 -0.220398,-0.03016 -0.316706,-0.08731 L 11.040004,4.931837 C 10.843948,4.81542 10.722239,4.598197 10.722239,4.365099 V 1.985172 c 0,-0.233098 0.121709,-0.45032 0.317765,-0.566737 l 2.004748,-1.190096 c 0.09604,-0.05715 0.205581,-0.08731 0.316706,-0.08731 0.11086,0 0.220398,0.03016 0.316706,0.08731 l 2.004748,1.190096 c 0.1651,0.09816 0.276754,0.268023 0.307975,0.458258 -0.06668,-0.141816 -0.216429,-0.180446 -0.391319,-0.07832 z"
         id="path43558"
         style="stroke-width:0.264583" />
      <g
         id="g44426"
         transform="matrix(0.26458333,0,0,0.26458333,14.209977,-23.547917)">
        <path
           d="m 12,6 c 3.537,0 6.837,1.353 9.293,3.809 L 22.707,8.395 C 19.874,5.561 16.071,4 12,4 7.929,4.001 4.126,5.561 1.293,8.395 L 2.707,9.809 C 5.163,7.353 8.463,6 12,6 Z m 5.671,8.307 c -3.074,-3.074 -8.268,-3.074 -11.342,0 l 1.414,1.414 c 2.307,-2.307 6.207,-2.307 8.514,0 z"
           id="path44411" />
        <path
           d="M 20.437,11.293 C 15.865,6.719 8.136,6.719 3.564,11.293 l 1.414,1.414 C 8.785,8.9 15.216,8.9 19.023,12.707 Z"
           id="path44413" />
        <circle
           cx="12"
           cy="18"
           r="2"
           id="circle44415" />
      </g>
    </g>
  </g>
</svg>
