<?xml version="1.0" encoding="UTF-8" standalone="no"?>
<!-- Created with Inkscape (http://www.inkscape.org/) -->

<svg
   width="1500"
   height="500"
   viewBox="0 0 396.875 132.29167"
   version="1.1"
   id="svg5"
   xml:space="preserve"
   inkscape:version="1.2.2 (732a01da63, 2022-12-09, custom)"
   sodipodi:docname="softwareEngineer.svg"
   xmlns:inkscape="http://www.inkscape.org/namespaces/inkscape"
   xmlns:sodipodi="http://sodipodi.sourceforge.net/DTD/sodipodi-0.dtd"
   xmlns="http://www.w3.org/2000/svg"
   xmlns:svg="http://www.w3.org/2000/svg"><sodipodi:namedview
     id="namedview7"
     pagecolor="#505050"
     bordercolor="#eeeeee"
     borderopacity="1"
     inkscape:showpageshadow="0"
     inkscape:pageopacity="0"
     inkscape:pagecheckerboard="0"
     inkscape:deskcolor="#505050"
     inkscape:document-units="px"
     showgrid="false"
     inkscape:zoom="0.074331525"
     inkscape:cx="3370.0372"
     inkscape:cy="800.46791"
     inkscape:window-width="1366"
     inkscape:window-height="704"
     inkscape:window-x="0"
     inkscape:window-y="0"
     inkscape:window-maximized="1"
     inkscape:current-layer="layer1"
     showguides="false" /><defs
     id="defs2"><clipPath
       clipPathUnits="userSpaceOnUse"
       id="clipPath9101"><circle
         style="fill:#5298ae;fill-opacity:1;stroke-width:0.377801"
         id="circle9103"
         cx="100"
         cy="100"
         r="100" /></clipPath></defs><g
     inkscape:label="Layer 1"
     inkscape:groupmode="layer"
     id="layer1"><rect
       style="fill:#000000;fill-opacity:1;stroke-width:0.147602"
       id="rect1151"
       width="396.875"
       height="132.29167"
       x="3.5627411e-06"
       y="-4.8613447e-06"
       ry="5.5580525" /><g
       id="g9274"
       transform="matrix(0.79375001,0,0,0.88194446,-347.22086,-263.9437)"><path
         fill="#5298ae"
         opacity="1"
         stroke="none"
         d="m 837.48249,346.36538 c -0.013,-11.50189 -0.0261,-23.00377 0.12541,-34.66657 7.25502,-0.15955 14.34543,-0.15821 21.44489,-0.006 0.001,11.65746 -0.006,23.16424 -0.16402,34.67069 -7.23623,3.3e-4 -14.32125,0.001 -21.40628,0.002 m 9.10727,-28.39397 c 0.66867,0 1.33735,0 1.98802,0 0,-1.42311 0,-2.5643 0,-3.83419 -2.21538,0 -4.29483,0 -6.37428,0 -3.38197,0 -3.38303,9e-5 -3.10181,3.39334 0.007,0.0929 0.0979,0.179 0.2495,0.44081 2.24225,0 4.58297,0 7.23857,4e-5 z"
         id="path6125"
         style="stroke-width:0.322459" /><path
         fill="#08708a"
         opacity="1"
         stroke="none"
         d="m 859.03999,346.36362 c 0.007,-11.50678 0.0145,-23.01356 0.0854,-34.75226 1.02155,-1.29995 1.97952,-2.36798 2.93748,-3.43601 0.27879,0.0964 0.74591,0.13354 0.79853,0.30098 0.12297,0.39125 0.0508,0.84505 0.0509,1.27354 6.4e-4,11.14322 -0.0446,22.28682 0.0497,33.42924 0.014,1.65678 -0.75622,2.72537 -1.62905,3.8692 -0.3703,0.48529 -0.79568,0.92856 -1.37697,1.41428 -0.42517,-0.57731 -0.66941,-1.17795 -0.9116,-1.85871 0.002,-0.0801 -0.005,-0.24026 -0.005,-0.24026 z"
         id="path6135"
         style="stroke-width:0.322459" /><path
         fill="#8ebaca"
         opacity="1"
         stroke="none"
         d="m 861.91407,308.11113 c -0.80911,1.13225 -1.76708,2.20028 -2.79767,3.34955 -7.16307,0.0799 -14.25348,0.0786 -21.49138,0.0895 1.64772,-1.91709 3.3445,-3.73335 6.44233,-3.61661 5.89236,0.22203 11.79784,0.0953 17.84672,0.17763 z"
         id="path6151"
         style="stroke-width:0.322459" /><path
         fill="#67a4b7"
         opacity="1"
         stroke="none"
         d="m 859.04241,346.68399 c 0.24423,0.60065 0.48846,1.20129 0.84067,1.86162 -0.32642,0.36159 -0.75879,0.92312 -1.19556,0.92657 -6.97192,0.0551 -13.9444,0.0387 -21.24942,0.0387 0,-0.89586 0,-1.71974 0.16915,-2.68453 7.25782,-0.14141 14.34648,-0.14193 21.43516,-0.14246 z"
         id="path6155"
         style="stroke-width:0.322459" /><path
         fill="#4c95ab"
         opacity="1"
         stroke="none"
         d="m 859.04445,346.60388 c -7.09072,0.0807 -14.17938,0.0812 -21.41586,0.0774 -0.14781,-0.005 -0.18146,-0.16027 -0.16379,-0.23811 7.10272,-0.0786 14.18774,-0.0795 21.42397,-0.0799 0.15122,3.1e-4 0.15772,0.16047 0.15568,0.24058 z"
         id="path6359"
         style="stroke-width:0.322459" /><path
         fill="#8ebaca"
         opacity="1"
         stroke="none"
         d="m 846.43232,317.97138 c -2.49816,-1e-5 -4.83888,-1e-5 -7.08113,-1e-5 -0.15165,-0.26183 -0.24181,-0.34791 -0.2495,-0.44082 -0.28122,-3.39325 -0.28016,-3.39333 3.10181,-3.39334 2.07945,0 4.1589,0 6.37428,0 0,1.26989 0,2.41109 0,3.83419 -0.65067,0 -1.31935,0 -2.14546,-2e-5 z"
         id="path6417"
         style="stroke-width:0.322459" /></g><g
       id="g8732"
       transform="matrix(0.96737901,0,0,1.0748656,198.50686,150.05979)"><path
         fill="#cbdfe6"
         opacity="1"
         stroke="none"
         d="m 178.33014,-65.926205 c -0.36267,-0.0098 -0.72534,-0.01966 -1.22134,-0.128696 -0.99911,-0.293341 -1.86493,-0.487466 -2.83503,-0.696396 -0.50446,-0.09625 -0.90463,-0.177705 -1.4899,-0.296837 0,1.014813 0.0264,1.834195 -0.005,2.651305 -0.0724,1.860738 -0.17336,3.720362 -0.26271,5.580441 -0.69692,-0.283498 -1.39384,-0.566997 -2.00583,-0.961054 0.28577,-0.540716 0.64106,-0.964242 0.65986,-1.402199 0.0695,-1.618938 -0.0778,-3.251684 0.0602,-4.861779 0.11692,-1.36456 -0.33031,-2.178363 -1.71172,-2.568554 -0.66212,-0.621117 -1.23424,-1.228275 -1.80636,-1.835428 0.0614,-0.845301 -0.19854,-1.984618 0.25042,-2.47541 0.96878,-1.059037 2.22049,-1.944857 3.50978,-2.599547 1.14423,-0.581043 2.47826,-0.844939 3.75894,-1.089501 3.18359,-0.607944 6.35716,-1.369097 9.65095,-0.746847 2.22846,0.420986 4.52685,0.547248 6.70599,1.132771 2.14689,0.576865 4.38195,1.294003 5.44604,3.588366 0.24038,0.51829 0.23392,1.151059 0.24017,1.853483 -0.73825,0.890074 -1.37555,1.657792 -2.10788,2.442967 -0.64938,0.364524 -1.20375,0.711597 -1.86287,1.058172 -0.73723,0.176704 -1.36972,0.353904 -2.1126,0.531728 -0.82836,0.09109 -1.5463,0.181567 -2.36232,0.282037 -0.72958,0.46431 -1.88454,0.896369 -1.90496,1.376646 -0.10711,2.52068 0.0729,5.053563 0.15313,7.582207 -0.88864,0.0056 -1.77727,0.01122 -2.78956,-0.108339 -0.12427,-1.739718 -0.12527,-3.354263 -0.12541,-4.968806 -2.7e-4,-3.113469 -1e-4,-3.113469 -3.29197,-3.098739 -0.92281,-0.08125 -1.73119,-0.161624 -2.53959,-0.241991 m 9.80171,-9.505738 c 0.0592,-0.229547 0.11842,-0.459095 0.23996,-0.930259 -1.64874,0.516842 -3.09435,0.970018 -4.71617,1.478423 0.42686,0.163898 0.65403,0.251113 1.01912,0.391292 -0.67496,0.57368 -1.26659,1.076544 -2.05837,1.749533 0.52962,0.08614 0.76565,0.124532 1.13687,0.306676 0.61152,-0.188679 1.26042,-0.302233 1.82591,-0.583472 0.8689,-0.432139 1.46504,-1.520251 2.94655,-0.806643 -0.20213,-0.670023 -0.31627,-1.048332 -0.39387,-1.60555 m -5.93864,5.737579 c 0.2682,-0.154802 0.53642,-0.309602 0.90147,-0.520292 -2.2879,-0.772546 -2.40322,-0.748247 -3.95007,0.689271 -0.61879,0.575061 -1.21667,1.261152 -2.23268,0.277532 -0.0714,0.534014 -0.11501,0.860602 -0.1507,1.410129 0.15527,0.357902 0.33778,1.034124 0.46153,1.023527 1.02405,-0.08766 2.17427,-0.0647 3.01343,-0.548508 0.77131,-0.444698 1.20413,-1.476472 1.95702,-2.331659 m -1.99871,-2.604653 c 0,0 -0.008,0.01053 -8e-4,-0.189183 -0.25613,-0.784121 -0.62614,-1.003879 -1.59446,-0.994621 -1.69826,0.01624 -3.43047,-0.342839 -5.09213,-0.765903 -1.14033,-0.290327 -2.59335,-0.153151 -3.31817,0.743411 -0.041,0.0507 0.15196,0.290546 0.27802,0.640413 0.30915,0.10051 0.61181,0.234294 0.92853,0.295976 1.7001,0.331115 3.50487,0.401823 5.06835,1.054145 0.94544,0.394454 1.58203,0.29242 2.39015,0.03642 0.43972,-0.13929 0.90402,-0.201065 1.47044,-0.384625 -0.0476,-0.145444 -0.0952,-0.290891 -0.12984,-0.436033 m 14.69852,2.651069 c 0.19949,-0.171855 0.39899,-0.343707 0.73898,-0.636587 -2.56834,-0.864809 -5.16707,-0.451443 -7.49398,-1.642605 -0.74428,-0.380997 -2.0874,0.407868 -3.15654,0.661474 0.0242,0.133303 0.0483,0.266602 0.0724,0.399905 0.1542,0.06712 0.30842,0.134233 0.4499,0.388969 0.11857,0.345974 0.23713,0.691943 0.30049,0.876803 0.90661,-0.105585 1.63814,-0.319226 2.34002,-0.246507 1.5936,0.165121 3.1864,0.407529 4.75166,0.747029 0.7667,0.166299 1.3339,0.112208 1.99705,-0.548481 z"
         id="path6127"
         style="stroke-width:0.264583" /><path
         fill="#deecef"
         opacity="1"
         stroke="none"
         d="m 180.98415,-65.683331 c 3.17745,-0.01561 3.17726,-0.01561 3.17755,3.097856 1.4e-4,1.614543 0.001,3.229088 0.005,4.966226 -0.97543,0.125579 -1.95366,0.128559 -3.05521,0.0074 -0.12451,-2.773235 -0.12572,-5.422379 -0.12693,-8.071527 z"
         id="path6173"
         style="stroke-width:0.264583" /><path
         fill="#b2d3da"
         opacity="1"
         stroke="none"
         d="m 188.92656,-66.477181 c 0.71796,-0.09047 1.43591,-0.180946 2.26568,-0.147447 0.11368,2.770735 0.11553,5.417505 0.11739,8.06428 -0.72384,0.263197 -1.44768,0.526397 -2.29343,0.677998 -0.11115,-2.939344 -0.1004,-5.767086 -0.0896,-8.594831 z"
         id="path6179"
         style="stroke-width:0.264583" /><path
         fill="#eef5f7"
         opacity="1"
         stroke="none"
         d="m 180.86975,-65.684214 c 0.11561,2.650032 0.11682,5.299175 0.11969,8.071757 -2.64867,0.140806 -2.6482,0.140806 -2.64883,-2.446626 -5.3e-4,-1.874856 -0.002,-3.749709 -0.007,-5.745845 0.80497,-0.04091 1.61335,0.03946 2.53618,0.120714 z"
         id="path6181"
         style="stroke-width:0.264583" /><path
         fill="#eef5f7"
         opacity="1"
         stroke="none"
         d="m 178.35023,-65.909793 c 0.0596,2.651884 0.005,5.300462 -0.051,8.072485 -2.65106,0.08477 -2.65059,0.08478 -2.59651,-2.502088 0.0391,-1.874446 0.0769,-3.748921 0.11445,-5.744707 0.80566,-0.02389 1.61216,0.07356 2.53307,0.17431 z"
         id="path6181-3"
         style="stroke-width:0.264583" /><path
         fill="#a3cad3"
         opacity="1"
         stroke="none"
         d="m 191.41377,-58.557297 c -0.106,-2.649826 -0.10785,-5.296596 -0.11113,-8.067958 0.63107,-0.301789 1.26355,-0.478989 2.08233,-0.578771 0.22473,1.954948 0.24371,3.83318 0.31148,5.709655 0.026,0.720209 0.1633,1.436391 0.24989,2.154407 -0.80948,0.261906 -1.61896,0.523814 -2.53257,0.782667 z"
         id="path6185"
         style="stroke-width:0.264583" /><path
         fill="#8ebaca"
         opacity="1"
         stroke="none"
         d="m 195.26131,-68.35657 c 0.63732,-0.767725 1.27462,-1.535443 1.99854,-2.310106 0.10193,2.590496 0.25446,5.198512 0.0554,7.779414 -0.0665,0.861719 -1.03212,1.654096 -1.69539,2.376475 -0.1875,-0.617138 -0.32701,-1.131682 -0.33459,-1.648159 -0.0302,-2.065546 -0.0196,-4.131691 -0.024,-6.197624 z"
         id="path6193"
         style="stroke-width:0.264583" /><path
         fill="#bfdae0"
         opacity="1"
         stroke="none"
         d="m 188.8285,-66.467183 c 0.0873,2.817747 0.0765,5.645489 0.0835,8.579401 -0.53144,0.194733 -1.08062,0.283302 -1.73258,0.375663 -0.18303,-2.524855 -0.36301,-5.057738 -0.2559,-7.578418 0.0204,-0.480277 1.17539,-0.912336 1.90496,-1.376646 z"
         id="path6201"
         style="stroke-width:0.264583" /><path
         fill="#a3cad3"
         opacity="1"
         stroke="none"
         d="m 167.71705,-70.321754 c 0.56695,0.483505 1.13908,1.090663 1.80152,1.835719 0.0903,2.796918 0.0903,5.455933 0.0903,8.114948 -1.02865,-0.644496 -1.92389,-1.342173 -1.89739,-2.755342 0.0442,-2.356461 0.0112,-4.714378 0.006,-7.195325 z"
         id="path6203"
         style="stroke-width:0.264583" /><path
         fill="#96bfce"
         opacity="1"
         stroke="none"
         d="m 195.16629,-68.339115 c 0.0995,2.048478 0.0888,4.114623 0.119,6.180169 0.008,0.516477 0.14709,1.031021 0.2399,1.656586 -0.45674,0.454951 -0.92745,0.799771 -1.48851,1.153493 -0.17693,-0.709113 -0.31423,-1.425295 -0.34023,-2.145504 -0.0678,-1.876475 -0.0867,-3.754707 -0.20675,-5.70916 0.47284,-0.423992 1.02721,-0.771065 1.67659,-1.135584 z"
         id="path6205"
         style="stroke-width:0.264583" /><path
         fill="#deecef"
         opacity="1"
         stroke="none"
         d="m 172.60462,-58.774369 c 5.3e-4,-1.902098 0.10148,-3.761722 0.17387,-5.62246 0.0318,-0.81711 0.005,-1.636492 0.005,-2.651305 0.58527,0.119132 0.98544,0.200586 1.48783,0.419931 0.10158,2.333773 0.13057,4.530384 0.0762,6.724939 -0.0114,0.459007 -0.33035,0.910391 -0.50759,1.365289 -0.38229,-0.06479 -0.76457,-0.129582 -1.23568,-0.236394 z"
         id="path6207"
         style="stroke-width:0.264583" /><path
         fill="#bfdae0"
         opacity="1"
         stroke="none"
         d="m 169.64453,-60.296292 c -0.0356,-2.73381 -0.0356,-5.392825 -0.036,-8.175779 1.2911,0.252288 1.73833,1.066091 1.62141,2.430651 -0.13796,1.610095 0.009,3.242841 -0.0601,4.861779 -0.0188,0.437957 -0.37409,0.861483 -0.68082,1.309082 -0.3402,-0.105349 -0.57452,-0.228145 -0.84446,-0.425733 z"
         id="path6209"
         style="stroke-width:0.264583" /><path
         fill="#eef5f7"
         opacity="1"
         stroke="none"
         d="m 173.86188,-58.438796 c 0.15565,-0.554077 0.47464,-1.005461 0.48601,-1.464468 0.0544,-2.194555 0.0254,-4.391166 0.0281,-6.710138 0.86788,0.07103 1.7337,0.26516 2.62395,0.558607 -0.35427,0.07816 -0.73299,0.05701 -1.30505,0.02506 0,2.295602 0.0139,4.513921 -0.005,6.731955 -0.0116,1.34539 -0.5024,1.592651 -1.82785,0.858983 z"
         id="path6213"
         style="stroke-width:0.264583" /><path
         fill="#fefffe"
         opacity="1"
         stroke="none"
         d="m 180.21113,-71.776156 c -0.45322,0.09673 -0.91751,0.158507 -1.35723,0.297797 -0.80812,0.256 -1.44471,0.358034 -2.39015,-0.03642 -1.56349,-0.652322 -3.36825,-0.72303 -5.06836,-1.054145 -0.31671,-0.06168 -0.61937,-0.195466 -0.85494,-0.427289 0.59934,-0.29147 1.15245,-0.645901 1.64582,-0.576352 1.66106,0.234143 3.29356,0.665935 4.95231,0.923557 0.67066,0.104166 1.38084,-0.04606 2.25182,-0.08943 0.10214,0.05771 0.44929,0.253828 0.79646,0.449948 0,0 0.008,-0.01053 -0.01,0.07677 -2.3e-4,0.203388 0.0169,0.319474 0.0339,0.435565 z"
         id="path6419"
         style="stroke-width:0.264583" /><path
         fill="#93b7c1"
         opacity="1"
         stroke="none"
         d="m 185.51652,-70.664413 c -0.1542,-0.06712 -0.30842,-0.134232 -0.46263,-0.201348 -0.0241,-0.133303 -0.0483,-0.266602 -0.0724,-0.399905 1.06914,-0.253606 2.41226,-1.042471 3.15654,-0.661474 2.32691,1.191162 4.92564,0.777796 7.49397,1.642605 -0.33998,0.29288 -0.53948,0.464732 -0.94238,0.640514 -1.11736,-0.107477 -2.07639,-0.07961 -2.93622,-0.358082 -2.04639,-0.662747 -4.0755,-1.203158 -6.23687,-0.66231 z"
         id="path6421"
         style="stroke-width:0.264583" /><path
         fill="#fefffe"
         opacity="1"
         stroke="none"
         d="m 185.51016,-70.570605 c 2.16773,-0.634656 4.19684,-0.09425 6.24323,0.568502 0.85983,0.278471 1.81886,0.250605 2.84225,0.374634 -0.36577,0.64021 -0.93297,0.694301 -1.69967,0.528002 -1.56527,-0.3395 -3.15806,-0.581908 -4.75167,-0.747029 -0.70188,-0.07272 -1.4334,0.140922 -2.34002,0.246507 -0.0634,-0.18486 -0.18191,-0.530829 -0.29412,-0.970616 z"
         id="path6423"
         style="stroke-width:0.264583" /><path
         fill="#93b7c1"
         opacity="1"
         stroke="none"
         d="m 180.19023,-72.388348 c -0.35054,-0.09626 -0.69769,-0.292386 -0.79983,-0.350092 -0.87098,0.04337 -1.58116,0.193598 -2.25182,0.08943 -1.65875,-0.257622 -3.29125,-0.689414 -4.95231,-0.923557 -0.49337,-0.06955 -1.04648,0.284882 -1.66681,0.477324 -0.17865,-0.119526 -0.37162,-0.35937 -0.33062,-0.410072 0.72483,-0.896562 2.17784,-1.033738 3.31818,-0.743411 1.66166,0.423064 3.39386,0.78214 5.09213,0.765903 0.96832,-0.0093 1.33832,0.2105 1.59108,1.094473 z"
         id="path6425"
         style="stroke-width:0.264583" /><path
         fill="#fefffe"
         opacity="1"
         stroke="none"
         d="m 182.02226,-69.612314 c -0.58194,0.773137 -1.01476,1.804911 -1.78606,2.249609 -0.83916,0.483812 -1.98939,0.460852 -3.01343,0.548508 -0.12375,0.01061 -0.30627,-0.665625 -0.35058,-1.13202 0.84915,-0.274119 1.88275,-0.194789 2.26491,-0.655658 0.83243,-1.003861 1.73802,-1.204407 2.88516,-1.010439 z"
         id="path6427"
         style="stroke-width:0.264583" /><path
         fill="#fefffe"
         opacity="1"
         stroke="none"
         d="m 188.09532,-75.25304 c 0.11413,0.378315 0.22827,0.756624 0.4304,1.426647 -1.48151,-0.713608 -2.07764,0.374504 -2.94655,0.806643 -0.56549,0.281239 -1.21438,0.394793 -1.87696,0.419214 0.37618,-0.557951 0.80386,-0.95117 1.23049,-1.34551 0.33416,-0.308866 0.61783,-0.759756 1.01145,-0.897559 0.68134,-0.23853 1.43048,-0.283356 2.15117,-0.409435 z"
         id="path6429"
         style="stroke-width:0.264583" /><path
         fill="#93b7c1"
         opacity="1"
         stroke="none"
         d="m 182.10774,-69.65334 c -1.23262,-0.152942 -2.13821,0.0476 -2.97064,1.051465 -0.38216,0.460869 -1.41576,0.381539 -2.26888,0.544189 -0.0713,-0.329565 -0.0276,-0.656153 0.0437,-1.190167 1.01601,0.98362 1.61389,0.297529 2.23268,-0.277532 1.54685,-1.437518 1.66217,-1.461817 3.95007,-0.689271 -0.36505,0.21069 -0.63326,0.36549 -0.98694,0.561316 z"
         id="path6431"
         style="stroke-width:0.264583" /><path
         fill="#93b7c1"
         opacity="1"
         stroke="none"
         d="m 188.11359,-75.34249 c -0.73896,0.215529 -1.4881,0.260355 -2.16944,0.498885 -0.39362,0.137803 -0.67729,0.588693 -1.01145,0.897559 -0.42663,0.39434 -0.85431,0.787559 -1.29809,1.27363 -0.25256,0.05399 -0.4886,0.01561 -1.01821,-0.07054 0.79178,-0.672989 1.38341,-1.175853 2.05836,-1.749533 -0.36509,-0.140179 -0.59226,-0.227394 -1.01912,-0.391292 1.62182,-0.508405 3.06743,-0.961581 4.71617,-1.478423 -0.12154,0.471164 -0.18076,0.700712 -0.25822,1.019712 z"
         id="path6433"
         style="stroke-width:0.264583" /><path
         fill="#93b7c1"
         opacity="1"
         stroke="none"
         d="m 180.26773,-71.819568 c -0.0737,-0.07268 -0.0908,-0.188765 -0.097,-0.392301 0.0584,0.05799 0.10603,0.203441 0.097,0.392301 z"
         id="path6435"
         style="stroke-width:0.264583" /></g><g
       id="g8747"
       transform="matrix(0.96737901,0,0,1.0748656,101.9937,173.8209)"><path
         fill="#5398ae"
         opacity="1"
         stroke="none"
         d="m 241.07108,-51.457333 c -7.86163,0.01953 -15.72328,0.0391 -23.58491,0.05847 -0.38775,0.0011 -0.77551,1.24e-4 -1.33631,1.24e-4 0,-2.537266 0,-4.978495 0.1426,-7.549173 7.40397,-0.134041 14.6654,-0.131929 21.92676,-0.151284 0.96037,-0.0026 1.92046,-0.114485 2.8651,-0.05775 -0.0148,2.645207 -0.014,5.172411 -0.0132,7.699611 z"
         id="path6129"
         style="stroke-width:0.264583" /><path
         fill="#90bbcb"
         opacity="1"
         stroke="none"
         d="m 241.0999,-59.274953 c -0.96022,0.06127 -1.92031,0.173196 -2.88068,0.175757 -7.26136,0.01934 -14.52279,0.01725 -21.90697,0.02917 0.65507,-0.705114 1.40291,-1.454057 2.21662,-2.122847 2.03736,-1.674556 4.08474,-3.338526 6.17372,-4.947542 0.52429,-0.403849 1.21903,-0.827103 1.83787,-0.830775 7.25613,-0.0431 14.51273,-0.0078 21.86736,0.143761 -1.18582,1.436648 -2.46459,2.741554 -3.75534,4.034483 -1.17743,1.179415 -2.36786,2.345841 -3.55258,3.51799 m 0.9685,-5.323896 c 0.69251,-0.257997 1.38503,-0.515998 2.19451,-0.81757 -0.49921,-0.335711 -0.85323,-0.573786 -1.05717,-0.710941 -0.61605,0.305406 -1.0978,0.544238 -1.83295,0.734314 -1.6899,0 -3.37979,0 -5.06969,0 -5.2e-4,0.07201 -0.001,0.144032 -0.002,0.216048 1.7645,0 3.52903,0 5.30261,0.175348 -7.9e-4,0.117038 -0.002,0.234074 0.011,0.458544 0.0822,-0.0149 0.1644,-0.0298 0.45332,-0.05574 m -19.20397,3.634902 c 0.66595,0.85589 1.46909,0.51172 2.51411,0.286427 1.60914,0.0058 3.21904,0.0398 4.82678,-0.0048 0.34418,-0.0096 0.68043,-0.304017 1.20511,-0.511685 -0.14447,-0.174229 -0.28581,-0.496843 -0.43389,-0.499968 -1.67304,-0.03531 -3.34713,-0.02164 -4.91106,-0.170846 0.1244,-0.203637 0.24878,-0.407279 0.37317,-0.610921 -0.2182,-0.06699 -0.46696,-0.237545 -0.64951,-0.183692 -0.97949,0.28892 -1.94607,0.624134 -2.90336,0.980297 -0.0654,0.02434 -0.0186,0.350375 -0.0213,0.715227 m 6.4058,-3.525705 c 1.93056,-0.0404 3.86113,-0.0808 5.79168,-0.121203 -0.0649,-0.405088 -0.12546,-0.5041 -0.18747,-0.505023 -1.83569,-0.02749 -3.67151,-0.04525 -5.62685,-0.202253 -0.89909,0.169677 -1.79818,0.339352 -2.85078,0.538001 1.08176,1.469496 1.89407,0.600641 2.87342,0.290478 m 10.54325,2.502233 c 0.33376,-0.182644 0.66753,-0.365289 1.12002,-0.612912 -1.82687,-0.675365 -2.1348,-0.549849 -2.84697,1.054653 0.53681,-0.146392 1.0335,-0.281845 1.72695,-0.441741 z"
         id="path6131"
         style="stroke-width:0.264583" /><path
         fill="#056e88"
         opacity="1"
         stroke="none"
         d="m 241.08432,-59.156944 c 1.2003,-1.290158 2.39073,-2.456584 3.56816,-3.635999 1.29075,-1.292929 2.56952,-2.597835 3.87599,-3.983045 0.16763,0.266618 0.42564,0.614849 0.43801,0.971592 0.0486,1.40258 -0.13501,2.82975 0.0597,4.20647 0.23513,1.662274 -0.68114,2.598394 -1.68576,3.613629 -2.02958,2.051013 -4.01617,4.144595 -6.01596,6.224971 -0.0548,0.05696 -0.0579,0.163531 -0.16929,0.274481 -0.0849,-2.499688 -0.0857,-5.026892 -0.0709,-7.672099 z"
         id="path6149"
         style="stroke-width:0.264583" /><path
         fill="#5d9db1"
         opacity="1"
         stroke="none"
         d="m 229.36713,-65.180429 c 1.8358,0.01929 3.67162,0.03706 5.50731,0.06455 0.062,7.94e-4 0.12256,0.09994 0.18748,0.505024 -1.93055,0.0404 -3.86112,0.0808 -5.85741,-0.0363 0.0104,-0.28276 0.0865,-0.408021 0.16262,-0.533274 z"
         id="path6437"
         style="stroke-width:0.264583" /><path
         fill="#6ea8ba"
         opacity="1"
         stroke="none"
         d="m 225.95561,-61.71511 c 1.6738,-5.29e-4 3.34789,-0.01421 5.02093,0.02109 0.14809,0.0031 0.28942,0.32574 0.22127,0.510294 -0.86035,0.006 -1.51002,0.03205 -2.15537,-0.0094 -1.18486,-0.07619 -2.36719,-0.192233 -3.541,-0.354259 0.01,-0.0626 0.0515,-0.182414 0.11858,-0.177326 0.15658,0.0066 0.24608,0.0081 0.33559,0.0096 z"
         id="path6439"
         style="stroke-width:0.264583" /><path
         fill="#b2d3da"
         opacity="1"
         stroke="none"
         d="m 225.49188,-61.484822 c 1.18337,0.09943 2.3657,0.215469 3.55056,0.291661 0.64535,0.0415 1.29502,0.0154 2.06299,0.03167 -0.21968,0.175114 -0.55593,0.469566 -0.90011,0.479131 -1.60774,0.04464 -3.21763,0.01069 -4.93583,-0.09337 0.001,-0.301839 0.1119,-0.505471 0.22239,-0.709094 z"
         id="path6441"
         style="stroke-width:0.264583" /><path
         fill="#73abbc"
         opacity="1"
         stroke="none"
         d="m 226.01055,-61.789984 c -0.14445,0.07336 -0.23395,0.07185 -0.50942,0.06428 -1.00373,0.190171 -1.82151,0.386402 -2.63927,0.582633 0.005,-0.185727 -0.0415,-0.511762 0.0239,-0.536101 0.95729,-0.356164 1.92387,-0.691378 2.90336,-0.980297 0.18255,-0.05385 0.4313,0.116702 0.64951,0.183692 -0.1244,0.203642 -0.24877,0.407284 -0.42811,0.685795 z"
         id="path6443"
         style="stroke-width:0.264583" /><path
         fill="#ebefee"
         opacity="1"
         stroke="none"
         d="m 229.30736,-65.249282 c -0.0163,0.194107 -0.0925,0.319368 -0.18051,0.520769 -0.83597,0.549024 -1.64827,1.417878 -2.73004,-0.05162 1.0526,-0.19865 1.95169,-0.368324 2.91055,-0.469152 z"
         id="path6445"
         style="stroke-width:0.264583" /><path
         fill="#eef5f7"
         opacity="1"
         stroke="none"
         d="m 239.71512,-61.975201 c -0.59508,0.147678 -1.09178,0.283131 -1.62858,0.429522 0.71216,-1.604502 1.02009,-1.730017 2.84697,-1.054653 -0.45249,0.247624 -0.78626,0.430268 -1.21839,0.625131 z"
         id="path6447"
         style="stroke-width:0.264583" /><path
         fill="#eef5f7"
         opacity="1"
         stroke="none"
         d="m 222.86315,-61.053511 c 0.81647,-0.285793 1.63425,-0.482024 2.57092,-0.677286 0.1189,0.0011 0.0769,0.12078 0.0674,0.183377 -0.12005,0.266221 -0.23054,0.469853 -0.3581,0.757751 -0.80982,0.337442 -1.61295,0.681612 -2.28019,-0.263842 z"
         id="path6449"
         style="stroke-width:0.264583" /><path
         fill="#eef5f7"
         opacity="1"
         stroke="none"
         d="m 241.6016,-64.650538 c 8e-4,-0.117038 0.002,-0.234074 0.004,-0.480816 0.002,-0.129704 0.0205,-0.212948 0.0205,-0.212942 0.48176,-0.238826 0.96351,-0.477658 1.57956,-0.783064 0.20394,0.137155 0.55796,0.37523 1.05717,0.710941 -0.80948,0.301572 -1.502,0.559573 -2.3621,0.80373 -0.21147,-0.02183 -0.25533,-0.02984 -0.29921,-0.03785 z"
         id="path6451"
         style="stroke-width:0.264583" /><path
         fill="#bfdae0"
         opacity="1"
         stroke="none"
         d="m 241.49948,-65.368675 c 0.1267,0.02437 0.10773,0.107617 0.10164,0.149648 -1.7706,0.04203 -3.53512,0.04203 -5.29963,0.04203 5.3e-4,-0.07202 0.001,-0.144033 0.002,-0.216048 1.6899,0 3.37978,0 5.19637,0.02437 z"
         id="path6453"
         style="stroke-width:0.264583" /><path
         fill="#bfdae0"
         opacity="1"
         stroke="none"
         d="m 241.60835,-64.596822 c 0.0371,-0.04571 0.081,-0.03771 0.18909,-0.01035 -0.018,0.03426 -0.10016,0.04916 -0.18909,0.01035 z"
         id="path6455"
         style="stroke-width:0.264583" /></g><g
       id="g8692"
       transform="matrix(0.96737901,0,0,1.0748656,313.92661,110.03206)"><path
         fill="#cbdfe6"
         opacity="1"
         stroke="none"
         d="m 66.253713,-69.596261 c 0.03923,-0.123526 0.07306,-0.196126 0.08789,-0.164278 0.549595,0.255887 6.119288,0.260271 3.960685,1.915547 -1.078597,1.061402 -1.389425,2.485842 -0.458941,2.661957 -0.02074,0.158546 -0.519496,-0.04975 -0.808008,-0.153022 -0.885288,-2.30876 4.861581,-3.687358 -2.781628,-4.260204 z"
         id="path6363"
         sodipodi:nodetypes="cccccc"
         style="stroke-width:0.264583" /><path
         fill="#579bb0"
         opacity="1"
         stroke="none"
         d="m 47.141232,-70.468685 c -0.391147,0 -0.782291,0 -1.244119,0 -0.05773,-0.353341 -0.145404,-0.642242 -0.146066,-0.931334 -0.0092,-3.985313 0.01834,-7.970922 -0.02564,-11.955767 -0.0098,-0.88482 0.314272,-1.19459 1.373368,-1.111403 5.999739,0.02902 11.761141,0.04715 17.50364,0.183633 -0.02114,4.591768 -0.02336,9.065187 -0.06089,13.608549 -0.177284,0.122674 -0.319267,0.175405 -0.588587,0.220419 -5.439473,-0.0031 -10.751616,0.0013 -16.15754,0.0089 -0.28058,-0.0057 -0.467373,-0.01437 -0.654164,-0.02305 m 4.072443,-12.424618 c -0.617038,6e-6 -1.23407,-9.27e-4 -1.851107,1.89e-4 -2.16616,0.0039 -2.483377,0.324893 -2.48856,2.547671 -0.0051,2.159603 -0.0049,4.319236 1.38e-4,6.478839 0.004,1.711399 0.375354,2.10235 2.087123,2.107546 4.098824,0.01244 8.197718,0.009 12.296568,0.0013 1.475426,-0.0028 1.904138,-0.358219 1.938896,-1.855763 0.05725,-2.466798 0.05998,-4.936898 0.0013,-7.403595 -0.03635,-1.528486 -0.475909,-1.869958 -2.069319,-1.873719 -3.217371,-0.0076 -6.434765,-0.0024 -9.91506,-0.0024 z"
         id="path6137"
         style="stroke-width:0.264583" /><path
         fill="#8ebaca"
         opacity="1"
         stroke="none"
         d="m 42.541726,-62.849418 c 0.585959,-0.910678 0.997913,-2.057326 1.812475,-2.657983 0.66158,-0.48785 1.806236,-0.320583 2.981613,-0.436849 5.204087,-0.0037 10.163215,-0.01431 15.219087,-0.01058 0.466434,-0.17063 0.836118,-0.355658 1.205802,-0.540692 0.497107,0.21707 0.994211,0.434139 1.448149,0.771282 -0.846479,1.082109 -1.649772,2.044147 -2.578243,2.988085 -1.623843,-0.02482 -3.12252,-0.03117 -4.621194,-0.03837 -5.155895,-0.02479 -10.311788,-0.04991 -15.467689,-0.0749 z"
         id="path6143"
         style="stroke-width:0.264583" /><path
         fill="#056e88"
         opacity="1"
         stroke="none"
         d="m 64.576823,-70.744955 c 0.0021,-4.473414 0.0044,-8.946833 0.116459,-13.554019 0.472168,-0.420287 0.834541,-0.706804 1.196915,-0.993326 0.747048,-0.170425 0.858514,0.215988 0.853104,0.859595 -0.03322,3.949205 -0.03376,7.898682 -0.170694,11.98577 -0.748927,0.659127 -1.372356,1.180552 -1.995784,1.70198 z"
         id="path6167"
         style="stroke-width:0.264583" /><path
         fill="#8bb8c9"
         opacity="1"
         stroke="none"
         d="m 64.541523,-70.675007 c 0.658728,-0.591376 1.282157,-1.112801 1.994823,-1.655908 0.0936,0.288872 0.09796,0.599424 0.02014,1.062728 -0.445775,0.440213 -0.826056,0.709197 -1.169527,1.018984 -0.710592,0.640911 -1.401591,1.303531 -2.22635,1.942595 -5.876462,-0.01857 -11.62722,-0.02249 -17.377981,-0.02643 0.446987,-0.645597 0.893966,-1.291185 1.349777,-2.036204 0.195612,-0.09077 0.382405,-0.08211 0.682784,0.02735 0.503732,0.298707 0.892347,0.665303 1.28424,0.668835 4.623255,0.04169 9.247211,0.04755 13.870233,-0.0041 0.373017,-0.0042 0.740529,-0.50152 1.110602,-0.769697 0.141986,-0.05273 0.283969,-0.10546 0.461253,-0.228134 z"
         id="path6169"
         style="stroke-width:0.264583" /><path
         fill="#5298ae"
         opacity="1"
         stroke="none"
         d="m 42.437268,-62.827675 c 5.260359,0.0033 10.416252,0.02835 15.572147,0.05315 1.498674,0.0072 2.997351,0.01355 4.613871,0.13403 0.113961,0.372581 0.110069,0.63141 0.106182,0.890236 -6.831674,0 -13.663345,0 -20.682317,0 0.107677,-0.397931 0.196664,-0.726806 0.390117,-1.077421 z"
         id="path6183"
         style="stroke-width:0.264583" /><path
         fill="#1b829a"
         opacity="1"
         stroke="none"
         d="m 62.458154,-65.969224 c -4.959125,0.01066 -9.918253,0.02133 -15.004396,0.0245 -0.132983,-0.368573 -0.138946,-0.729657 -0.02866,-1.20377 5.092475,-0.103878 10.068705,-0.09473 15.039654,0.01905 -0.0057,0.456489 -0.0062,0.808366 -0.0066,1.160241 z"
         id="path6187"
         style="stroke-width:0.264583" /><path
         fill="#5398ae"
         opacity="1"
         stroke="none"
         d="m 62.470031,-67.234083 c -4.976225,-0.0092 -9.952455,-0.01831 -15.059326,-0.02178 -0.676352,-0.265446 -1.955057,0.735071 -1.66973,-0.991343 5.792419,-0.08191 11.543178,-0.07797 17.415954,0.04108 -0.147622,0.400759 -0.417258,0.686395 -0.686898,0.972034 z"
         id="path6189"
         style="stroke-width:0.264583" /><path
         fill="#96bfce"
         opacity="1"
         stroke="none"
         d="m 65.811705,-85.368704 c -0.283882,0.362926 -0.646255,0.649443 -1.099513,0.951379 -5.852279,-0.0027 -11.613681,-0.02084 -17.499965,-0.05517 0.992929,-0.355003 2.106084,-0.966613 3.229348,-0.985784 5.095656,-0.08696 10.194166,-0.0068 15.37013,0.08958 z"
         id="path6191"
         style="stroke-width:0.264583" /><path
         fill="#96bfce"
         opacity="1"
         stroke="none"
         d="m 65.656876,-62.501004 c 1.286656,-2.9596 1.107644,-3.272261 4.183999,-2.688236 -0.395753,0.976381 -0.87082,1.817518 -1.462831,2.662338 -0.985017,0.01109 -1.853091,0.0185 -2.721168,0.0259 z"
         id="path6279"
         style="stroke-width:0.264583" /><path
         fill="#08708a"
         opacity="1"
         stroke="none"
         d="m 62.464753,-67.129466 c 0.274918,-0.390256 0.544554,-0.675892 0.817874,-1.062022 0.702747,-0.754184 1.393746,-1.416804 2.104337,-2.057715 0.343472,-0.309787 0.723752,-0.578771 1.165053,-0.902091 0.07307,0.28862 0.06845,0.613095 -0.02109,1.075361 -0.351142,0.586939 -0.617363,1.036093 -0.883579,1.485247 -0.591071,0.653156 -1.182153,1.306314 -1.829937,2.027322 -0.426392,0.252884 -0.796076,0.437912 -1.26251,0.608542 -0.09631,-0.366276 -0.09587,-0.718154 -0.09015,-1.174644 z"
         id="path6321"
         style="stroke-width:0.264583" /><path
         fill="#1b829a"
         opacity="1"
         stroke="none"
         d="m 62.823366,-61.743979 c -0.09001,-0.265101 -0.08612,-0.52393 -0.07491,-0.878416 0.810625,-1.057691 1.613918,-2.019729 2.50231,-3.008747 0.566092,2.073926 -1.096902,2.852161 -2.4274,3.887163 z"
         id="path6361"
         style="stroke-width:0.264583" /><path
         fill="#1b829a"
         opacity="1"
         stroke="none"
         d="m 68.494988,-62.530593 c 0.475067,-0.841129 0.950134,-1.682266 1.448877,-2.608656 0.1544,0.441679 0.546245,1.099862 0.361169,1.468098 -0.378989,0.754071 -1.067673,1.352492 -1.698636,1.881934 -0.08367,-0.335841 -0.09754,-0.538604 -0.11141,-0.741376 z"
         id="path6383"
         style="stroke-width:0.264583" /><path
         fill="#73abbc"
         opacity="1"
         stroke="none"
         d="m 68.378044,-62.526907 c 0.130816,0.199086 0.144688,0.401849 0.160528,0.706207 -0.719415,0.113115 -1.445921,0.177607 -2.159492,0.108498 -0.26276,-0.02545 -0.494987,-0.366236 -0.731673,-0.675997 0.877546,-0.120208 1.74562,-0.127611 2.730637,-0.138708 z"
         id="path6387"
         style="stroke-width:0.264583" /><path
         fill="#d3e3ea"
         opacity="1"
         stroke="none"
         d="m 51.34513,-82.89331 c 3.348839,5.6e-5 6.566233,-0.0052 9.783604,0.0024 1.593411,0.0038 2.032971,0.345233 2.069319,1.873719 0.05866,2.466697 0.05593,4.936797 -0.0013,7.403595 -0.03476,1.497544 -0.46347,1.852974 -1.938895,1.855763 -4.098851,0.0078 -8.197745,0.01119 -12.296569,-0.0013 -1.711769,-0.0052 -2.083154,-0.396147 -2.087123,-2.107546 -0.005,-2.159603 -0.0052,-4.319236 -1.38e-4,-6.478839 0.0052,-2.222778 0.3224,-2.543735 2.48856,-2.547671 0.617037,-0.0011 1.234069,-1.84e-4 1.982562,-1.96e-4 z"
         id="path6459"
         style="stroke-width:0.264583" /><path
         fill="#1b829a"
         opacity="1"
         stroke="none"
         d="m 63.952936,-70.454583 c -0.242739,0.275886 -0.610251,0.773237 -0.983268,0.777407 -4.623023,0.05165 -9.246979,0.0458 -13.870234,0.0041 -0.391893,-0.0035 -0.780507,-0.370129 -1.190453,-0.671799 5.292339,-0.108309 10.604481,-0.112871 16.043955,-0.109714 z"
         id="path6461"
         style="stroke-width:0.264583" /></g><g
       id="g8764"
       transform="matrix(0.96737901,0,0,1.0748656,87.442625,175.40239)"><path
         fill="#7fb3c3"
         opacity="1"
         stroke="none"
         d="m 293.45825,-69.124396 c 0.34824,-0.140152 0.80899,-0.184121 1.02521,-0.437105 0.93263,-1.091358 2.14876,-1.400114 3.60309,-1.306406 0.11047,4.739796 0.11978,9.340792 0.10544,13.941708 -0.005,1.623925 -0.82468,2.386324 -2.28494,2.362308 -0.83019,-0.01365 -1.6636,0.16836 -2.49555,0.262263 0,3e-6 -0.10224,0.0337 -0.16632,-0.03673 -0.15425,-0.216992 -0.24445,-0.363564 -0.3366,-0.633081 -0.003,-4.713267 -0.003,-9.303586 0.0676,-13.922762 0.20786,-0.09597 0.34496,-0.163078 0.48207,-0.230198 z"
         id="path6139"
         style="stroke-width:0.264583" /><path
         fill="#73abbc"
         opacity="1"
         stroke="none"
         d="m 293.4369,-54.217482 c 0.80655,-0.178049 1.63996,-0.360064 2.47015,-0.346409 1.46026,0.02402 2.27989,-0.738383 2.28494,-2.362308 0.0143,-4.600916 0.005,-9.201912 0.005,-13.926794 1.23891,-0.295261 2.3613,-0.071 3.39293,0.948407 0.18796,0.149085 0.26369,0.192077 0.33946,0.235064 0,5e-6 -0.023,-0.0042 -0.022,0.116078 -0.003,5.248182 -0.005,10.376135 -0.0976,15.50561 -0.37086,0.0861 -0.65169,0.170675 -0.93257,0.255259 -0.55232,-0.27867 -1.0935,-0.584134 -1.66304,-0.821523 -0.20042,-0.08355 -0.57211,-0.100685 -0.69324,0.02201 -1.56779,1.588286 -3.33264,0.779378 -5.08412,0.374608 z"
         id="path6145"
         style="stroke-width:0.264583" /><path
         fill="#6ea8ba"
         opacity="1"
         stroke="none"
         d="m 292.91051,-54.848487 c 0.0902,0.146568 0.18042,0.29314 0.28427,0.528989 -1.35819,1.142408 -4.1506,1.085509 -5.553,-0.23849 -0.0374,-4.747829 -0.0394,-9.280591 -0.0415,-13.813356 0.42685,-1.280708 1.56676,-1.486016 2.62665,-1.485331 1.05518,7.94e-4 2.11013,0.345792 3.19823,0.63608 -0.10401,0.163319 -0.24111,0.230428 -0.46889,0.22806 -0.79391,-0.289854 -1.4971,-0.51022 -2.15242,-0.715595 -0.15361,0.281236 -0.231,0.356923 -0.23132,0.432932 -0.019,4.579901 -0.0308,9.159833 -0.0464,13.739749 -0.003,0.864876 0.51951,1.033682 1.23068,0.929325 0.38809,-0.05694 0.76936,-0.160067 1.15369,-0.242363 z"
         id="path6153"
         style="stroke-width:0.264583" /><path
         fill="#579bb0"
         opacity="1"
         stroke="none"
         d="m 300.95667,-53.718912 c 0.20151,-0.158247 0.48234,-0.242827 0.96661,-0.326888 0.65674,-7.93e-4 1.11008,-0.0021 1.65721,-0.01741 0.82659,-0.355502 1.5593,-0.69704 2.38313,-1.048827 1.68,-1.125585 2.83761,-2.372685 2.59797,-4.599062 -0.21688,-2.015045 -0.0458,-4.071842 -0.0458,-6.127456 -0.67006,-0.0985 -1.38912,-0.204218 -2.1082,-0.309933 2.5877,-1.049499 4.35565,0.290822 6.03432,2.246633 0.0652,1.219674 0.0757,2.243738 0.0862,3.2678 0,0 0.0425,0.01423 -0.0678,0.02326 -0.30893,0.974836 -0.50752,1.940658 -0.70615,2.906477 0,-3e-6 -0.004,-0.03363 -0.078,-0.0021 -0.11692,0.113686 -0.16002,0.195858 -0.2031,0.27803 0,-6e-6 -0.003,-0.03926 -0.0619,-0.01476 -0.11432,0.137832 -0.1702,0.251161 -0.22611,0.364487 -1.41621,0.7562 -3.09227,1.248116 -4.19047,2.327783 -1.85328,1.821976 -3.91586,1.101794 -6.03785,1.031986 z"
         id="path6159"
         style="stroke-width:0.264583" /><path
         fill="#5d9db1"
         opacity="1"
         stroke="none"
         d="m 285.23116,-56.188509 c -4.82269,-0.659048 -5.53828,-6.112187 -3.59431,-8.476813 0.7637,-0.928945 2.02356,-1.474841 3.11198,-2.100295 0.4681,-0.268991 1.07484,-0.296674 1.69791,-0.391247 -1.18563,0.804005 -1.27588,1.985727 -1.2364,3.315861 0.0756,2.548795 0.0212,5.101448 0.0209,7.652494 z"
         id="path6161"
         style="stroke-width:0.264583" /><path
         fill="#67a4b7"
         opacity="1"
         stroke="none"
         d="m 305.87253,-55.101781 c -0.73274,0.341535 -1.46545,0.683072 -2.29127,0.915112 -0.0908,-4.892051 -0.0886,-9.674595 -0.0863,-14.45714 0.87135,0.655791 1.7427,1.311571 2.55574,2.135915 -0.0983,3.914415 -0.13824,7.660264 -0.17814,11.406113 z"
         id="path6163"
         style="stroke-width:0.264583" /><path
         fill="#67a4b7"
         opacity="1"
         stroke="none"
         d="m 285.29882,-56.126025 c -0.0672,-2.61353 -0.013,-5.166183 -0.0885,-7.714978 -0.0395,-1.330134 0.0508,-2.511856 1.32501,-3.369241 0.30752,-0.42401 0.60568,-0.751885 0.98441,-1.120431 0.0826,4.492096 0.0847,9.024858 0.0807,13.686055 -0.74867,-0.38735 -1.49138,-0.903134 -2.30169,-1.481405 z"
         id="path6165"
         style="stroke-width:0.264583" /><path
         fill="#5d9db1"
         opacity="1"
         stroke="none"
         d="m 305.9636,-55.112033 c -0.0512,-3.735597 -0.0111,-7.481446 0.11067,-11.303908 0.15634,-0.01243 0.23064,0.05172 0.31914,0.19168 0.73324,0.181491 1.4523,0.287208 2.12236,0.38571 0,2.055614 -0.17106,4.112411 0.0458,6.127456 0.23964,2.226376 -0.91797,3.473477 -2.59799,4.599062 z"
         id="path6171"
         style="stroke-width:0.264583" /><path
         fill="#6ea8ba"
         opacity="1"
         stroke="none"
         d="m 303.44468,-68.715707 c 0.048,4.854443 0.0457,9.636987 0.0427,14.542995 -0.45405,0.124785 -0.90739,0.126111 -1.47412,0.125396 -0.11049,-5.129993 -0.10761,-10.257946 -0.096,-15.512465 0.49821,0.173019 0.98772,0.472596 1.52736,0.844074 z"
         id="path6175"
         style="stroke-width:0.264583" /><path
         fill="#4c95ab"
         opacity="1"
         stroke="none"
         d="m 311.84049,-57.74051 c 0.11227,-0.929621 0.31086,-1.895443 0.61987,-2.847843 -0.10419,0.946158 -0.31885,1.878902 -0.61987,2.847843 z"
         id="path6389"
         style="stroke-width:0.264583" /><path
         fill="#4c95ab"
         opacity="1"
         stroke="none"
         d="m 312.61771,-60.681198 c -0.10012,-0.976915 -0.11065,-2.00098 -0.1133,-3.158204 0.0729,0.94824 0.1379,2.029648 0.1133,3.158204 z"
         id="path6395"
         style="stroke-width:0.264583" /><path
         fill="#4c95ab"
         opacity="1"
         stroke="none"
         d="m 311.21023,-57.037041 c 0.0307,-0.154967 0.0865,-0.268296 0.21108,-0.389268 -0.0161,0.138541 -0.10096,0.284726 -0.21108,0.389268 z"
         id="path6407"
         style="stroke-width:0.264583" /><path
         fill="#4c95ab"
         opacity="1"
         stroke="none"
         d="m 311.54697,-57.439261 c -0.0309,-0.07132 0.0122,-0.15349 0.12686,-0.250452 0.0301,0.07 -0.0114,0.154803 -0.12686,0.250452 z"
         id="path6413"
         style="stroke-width:0.264583" /><path
         fill="#6ea8ba"
         opacity="1"
         stroke="none"
         d="m 301.90095,-69.733284 c -0.0473,0.02077 -0.12304,-0.02223 -0.23083,-0.123293 0.0461,-0.01887 0.12425,0.02032 0.23083,0.123293 z"
         id="path6415"
         style="stroke-width:0.264583" /><path
         fill="#77aebf"
         opacity="1"
         stroke="none"
         d="m 292.90858,-54.971436 c -0.3824,0.205245 -0.76367,0.308371 -1.15176,0.365312 -0.71117,0.104357 -1.23362,-0.06445 -1.23068,-0.929325 0.0156,-4.579916 0.0272,-9.159848 0.0464,-13.739749 0,-0.07601 0.0777,-0.151696 0.23132,-0.432932 0.65532,0.205375 1.35851,0.425741 2.08161,0.744453 0.0204,4.688655 0.0209,9.278974 0.023,13.992241 z"
         id="path6463"
         style="stroke-width:0.264583" /></g><g
       id="g9319"
       transform="translate(205.23511,88.234093)"><path
         fill="#8ebaca"
         opacity="1"
         stroke="none"
         d="m 114.56358,-20.913831 c -0.12373,-0.107261 -0.36733,-0.240737 -0.35365,-0.31795 0.33133,-1.87053 0.70479,-3.731824 1.03961,-5.601642 0.30508,-1.703713 0.55624,-3.419393 0.86471,-5.122298 0.18859,-1.041076 0.37191,-2.096266 0.70235,-3.085422 0.11067,-0.331289 0.66844,-0.677832 1.02302,-0.679338 6.803,-0.02891 13.60619,-0.0074 20.53851,0.159886 -0.0486,0.911371 -0.27361,1.657209 -0.39611,2.42329 -0.63352,3.962225 -1.24082,7.929634 -1.97846,11.893807 -6.7499,-0.0017 -13.37858,-0.0086 -20.00721,0.01237 -0.47785,0.0014 -0.9552,0.206761 -1.43277,0.317284 m 20.33873,-12.862022 c -5.44011,0 -10.88023,0 -16.30322,0 -0.52845,2.932114 -1.05857,5.666447 -1.5072,8.417188 -0.51965,3.186169 -0.65335,2.647628 1.92739,2.665837 4.64482,0.03277 9.28998,0.01584 13.93495,0.0017 0.65145,-0.002 1.42723,0.17188 1.60722,-0.912189 0.49847,-3.002077 0.99522,-6.004543 1.50636,-9.003973 0.14703,-0.862836 -0.11409,-1.27207 -1.1655,-1.168473 z"
         id="path6133"
         style="stroke-width:0.269797" /><path
         fill="#4c95ab"
         opacity="1"
         stroke="none"
         d="m 110.23197,-16.726521 c 1.23311,-1.018576 2.46621,-2.03715 3.90788,-3.071816 4.2078,-0.02275 8.20711,-0.04713 12.20627,-0.03008 2.84602,0.01215 5.69183,0.08006 8.50782,0.213863 -0.81675,1.143441 -1.60358,2.196093 -2.50415,3.234678 -3.45378,-0.01408 -6.79381,-0.01408 -10.09748,-0.01408 -0.0759,0.450689 -0.13206,0.784351 -0.24239,1.141234 -0.12927,0.06158 -0.17694,0.125275 -0.30117,0.230904 -0.38419,0.02488 -0.66435,0.03318 -0.98536,-0.01863 -0.26154,-0.01573 -0.48225,0.02865 -0.72579,-0.02793 -0.51441,-0.136189 -1.00594,-0.1714 -1.57464,-0.175519 -0.15015,0.120577 -0.22313,0.210058 -0.38601,0.286173 -0.32005,-0.07049 -0.5502,-0.12763 -0.91647,-0.218546 0.2936,-0.415143 0.50199,-0.709796 0.87366,-1.235343 -2.32143,0 -4.38876,0.01775 -6.45548,-0.01431 -0.43674,-0.0068 -0.87118,-0.195647 -1.30669,-0.300618 z"
         id="path6141"
         style="stroke-width:0.269797" /><path
         fill="#5298ae"
         opacity="1"
         stroke="none"
         d="m 128.71017,-9.6526629 c -6.37064,0.021443 -12.74128,0.044134 -19.11193,0.063385 -1.40185,0.00419 -2.80372,-0.00376 -4.33178,-0.1472437 -0.12621,-0.8710484 -0.12621,-1.6008994 -0.12621,-2.4531334 4.31841,0 8.39863,0 12.693,0 -0.71403,-0.308431 -1.20159,-0.519037 -1.68915,-0.729646 0.002,-0.177185 0.004,-0.354369 0.006,-0.531553 0.48965,-0.06 1.09165,-0.349003 1.44643,-0.134117 0.8357,0.506172 1.4626,0.203833 2.23546,-0.269729 0.45278,0.05074 0.80073,0.09977 1.14866,0.148778 0.042,0.141575 0.084,0.283149 0.12591,0.424718 -0.5347,0.358641 -1.0694,0.717275 -1.65704,1.11142 3.11642,0 6.16279,0 9.21664,0.126978 0.0196,0.881363 0.0319,1.635754 0.0441,2.3901454 z"
         id="path6147"
         style="stroke-width:0.269797" /><path
         fill="#8bb8c9"
         opacity="1"
         stroke="none"
         d="m 119.72705,-13.856425 c -0.66802,0.475284 -1.29492,0.777624 -2.13062,0.271452 -0.35478,-0.214886 -0.95678,0.07412 -1.44643,0.134117 -0.002,0.177184 -0.004,0.354368 -0.006,0.531553 0.48756,0.210609 0.97511,0.421215 1.68916,0.729646 -4.29438,0 -8.3746,0 -12.69301,0 0,0.852234 0,1.582085 0.008,2.4387933 -0.58487,-0.3239613 -0.8035,-2.1150503 -0.27326,-2.5673843 1.17531,-1.002622 2.3945,-1.941452 3.58084,-2.928498 0.5508,-0.458288 1.0667,-0.968399 1.68734,-1.467398 0.52443,0.0926 0.95888,0.281476 1.39562,0.288242 2.06672,0.03203 4.13405,0.01431 6.45548,0.01431 -0.37166,0.525547 -0.58005,0.8202 -0.87365,1.235343 0.36626,0.09091 0.59642,0.148051 0.92734,0.331944 0.15579,1.483435 1.10822,0.82012 1.68537,0.994737 -0.002,-0.0023 -0.006,-0.0069 -0.006,-0.0069 z"
         id="path6157"
         style="stroke-width:0.269797" /><path
         fill="#08708a"
         opacity="1"
         stroke="none"
         d="m 128.79665,-9.6675079 c -0.0987,-0.7395461 -0.11091,-1.4939371 -0.0774,-2.4530161 0.80088,-0.899591 1.59478,-1.549806 2.29856,-2.303848 0.54075,-0.579348 0.96799,-1.289476 1.44569,-1.941444 0.78683,-1.05265 1.57366,-2.105302 2.46258,-3.273028 0.21638,-0.21666 0.33065,-0.318243 0.52471,-0.430426 0.29367,-0.0169 0.72146,-0.02948 0.72146,-0.02948 0,0 0.37119,0.287218 -0.11746,1.244114 -0.4057,1.343584 -2.68516,4.552369 -3.64448,5.62331 -1.11744,1.247463 -2.34656,2.37143 -3.61369,3.5638243 z"
         id="path6177"
         style="stroke-width:0.269797"
         sodipodi:nodetypes="ccscccccscc" /><path
         fill="#7fb3c3"
         opacity="1"
         stroke="none"
         d="m 135.37104,-20.058668 c -0.11428,0.101586 -0.22855,0.203164 -0.41501,0.329035 -2.91808,-0.01875 -5.76389,-0.08666 -8.60991,-0.09879 -3.99916,-0.01706 -7.99847,0.0073 -12.11673,0.01237 0.021,-0.269339 0.16109,-0.537046 0.49389,-0.834946 6.56361,-0.02924 12.93455,-0.04075 19.30522,-5.69e-4 0.44852,0.0028 0.89507,0.386459 1.34254,0.593016 z"
         id="path6195"
         style="stroke-width:0.269797" /><path
         fill="#08708a"
         opacity="1"
         stroke="none"
         d="m 136.12477,-21.242072 c 0.61643,-3.965599 1.22373,-7.933008 1.85725,-11.895233 0.1225,-0.766081 0.34753,-1.511919 0.51621,-2.384138 0.33998,0.202625 0.68902,0.522293 0.96141,0.771767 -0.74749,4.694467 -1.4799,9.294186 -2.36228,13.941815 -0.42418,-0.112801 -0.69839,-0.273505 -0.97259,-0.434211 z"
         id="path6197"
         style="stroke-width:0.269797" /><path
         fill="#67a4b7"
         opacity="1"
         stroke="none"
         d="m 136.00356,-21.243498 c 0.39541,0.162132 0.66962,0.322836 1.02026,0.509904 -0.1614,0.220599 -0.39924,0.414844 -0.74432,0.621961 -0.32112,0.01917 -0.53501,0.02548 -0.82868,0.04237 -0.52725,-0.19596 -0.9738,-0.579592 -1.42232,-0.582419 -6.37067,-0.04007 -12.74161,-0.02856 -19.22345,-0.02164 -0.13797,-0.03011 -0.165,-0.06809 -0.21675,-0.173291 0.45285,-0.177742 0.9302,-0.382993 1.40805,-0.384503 6.62863,-0.02096 13.25731,-0.01396 20.00721,-0.01237 z"
         id="path6211"
         style="stroke-width:0.269797" /><path
         fill="#5398ae"
         opacity="1"
         stroke="none"
         d="m 135.02165,-33.775745 c 0.93207,-0.103714 1.19319,0.305518 1.04616,1.168354 -0.51114,2.99943 -1.00789,6.001896 -1.50636,9.003973 -0.17999,1.084069 -0.95577,0.910192 -1.60722,0.912189 -4.64497,0.01425 -9.29013,0.03116 -13.93495,-0.0017 -2.58074,-0.0182 -2.44704,0.520332 -1.92739,-2.665837 0.44863,-2.75074 0.97875,-5.485074 1.5072,-8.417188 5.42299,0 10.86311,0 16.42256,1.2e-4 z"
         id="path6457"
         style="stroke-width:0.269797" /><path
         fill="#8bb8c9"
         opacity="1"
         stroke="none"
         d="m 132.34979,-16.379881 c -0.36396,0.666033 -0.7912,1.376161 -1.33195,1.955509 -0.70379,0.754042 -1.49768,1.404257 -2.30603,2.17687 -3.09959,0.07771 -6.14598,0.07771 -9.26239,0.07771 0.58764,-0.394144 1.12233,-0.752779 1.65703,-1.111419 -0.042,-0.14157 -0.084,-0.283144 -0.12589,-0.424718 -0.34795,-0.04901 -0.69589,-0.09804 -1.14868,-0.148778 -0.10483,-0.0017 -0.10068,0.0028 -0.10089,-0.06928 0.002,-0.121666 0.003,-0.171215 0.002,-0.217236 -0.004,0.0035 -0.0111,0.01032 0.0813,0.0072 0.3784,-0.284201 0.66447,-0.565245 0.95055,-0.846286 0.28016,-0.0083 0.56033,-0.01659 0.99898,-0.06062 0.22209,-0.0879 0.26955,-0.154317 0.30087,-0.234979 0.0562,-0.333656 0.11235,-0.667319 0.18823,-1.118008 3.30367,0 6.64371,0 10.09747,0.01408 z"
         id="path6465"
         style="stroke-width:0.269797" /><path
         fill="#8bb8c9"
         opacity="1"
         stroke="none"
         d="m 118.50011,-15.274984 c 0.49155,0.03521 0.98308,0.07043 1.47752,0.294957 -0.0835,0.409256 -0.16989,0.629188 -0.25628,0.849128 0,0 0.008,-0.0068 -0.09,-0.01607 -0.80444,0.03118 -1.31268,-0.155034 -1.13125,-1.128019 z"
         id="path6467"
         style="stroke-width:0.269797" /><path
         fill="#1b829a"
         opacity="1"
         stroke="none"
         d="m 118.42296,-15.243888 c -0.10428,0.94189 0.40396,1.128107 1.21202,1.093394 0.0994,0.0553 0.0976,0.104853 0.098,0.228791 -0.57694,-0.1025 -1.52938,0.560819 -1.59527,-0.909249 0.0621,-0.202879 0.13509,-0.29236 0.28524,-0.412936 z"
         id="path6469"
         style="stroke-width:0.269797" /><path
         fill="#1b829a"
         opacity="1"
         stroke="none"
         d="m 119.81368,-14.134059 c -0.006,-0.21678 0.0805,-0.436712 0.1868,-0.744992 0.24066,-0.132723 0.46137,-0.177099 0.72291,-0.161386 -0.24523,0.341136 -0.5313,0.62218 -0.90971,0.906378 z"
         id="path6471"
         style="stroke-width:0.269797" /><path
         fill="#1b829a"
         opacity="1"
         stroke="none"
         d="m 122.00992,-15.252713 c 0.0228,0.05743 -0.0246,0.123846 -0.14268,0.195158 -0.0343,-0.06989 0.0135,-0.133579 0.14268,-0.195158 z"
         id="path6473"
         style="stroke-width:0.269797" /></g><g
       id="g21342"
       transform="translate(65.188828,26.215173)"><rect
         style="fill:#00bceb;fill-opacity:1;stroke-width:0.231894"
         id="rect12345"
         width="224.89584"
         height="39.6875"
         x="0"
         y="0"
         ry="6.0969653" /><text
         xml:space="preserve"
         style="font-weight:bold;font-size:26.4583px;font-family:Ubuntu;-inkscape-font-specification:'Ubuntu Bold';fill:#ffffff;fill-opacity:1;stroke-width:2.19089"
         x="9.2110739"
         y="27.97966"
         id="text3874"><tspan
           sodipodi:role="line"
           style="font-style:normal;font-variant:normal;font-weight:bold;font-stretch:normal;font-size:26.4583px;font-family:Ubuntu;-inkscape-font-specification:'Ubuntu Bold';fill:#ffffff;fill-opacity:1;stroke-width:2.19089"
           x="9.2110739"
           y="27.97966"
           id="tspan6104">@techwithulises</tspan></text></g><g
       id="g24457"
       transform="translate(173.668,68.548507)"><g
         id="g22106"
         transform="translate(-108.47917)"><rect
           style="fill:none;fill-opacity:1;stroke:#00bceb;stroke-width:0.661458;stroke-dasharray:none;stroke-opacity:1"
           id="rect12345-3"
           width="105.17646"
           height="25.80146"
           x="0.33072916"
           y="0.33072901"
           ry="3.9637322" /><text
           xml:space="preserve"
           style="font-weight:bold;font-size:11.9062px;font-family:Ubuntu;-inkscape-font-specification:'Ubuntu Bold';fill:#00bceb;fill-opacity:1;stroke-width:1.04537"
           x="10.800825"
           y="17.761705"
           id="text3874-3-5"><tspan
             sodipodi:role="line"
             style="font-style:normal;font-variant:normal;font-weight:normal;font-stretch:normal;font-size:11.9062px;font-family:Ubuntu;-inkscape-font-specification:Ubuntu;fill:#00bceb;fill-opacity:1;stroke-width:1.04537"
             x="10.800825"
             y="17.761705"
             id="tspan6104-6-6">Ulises Gutirrez</tspan></text></g><g
         id="g24447"
         transform="translate(-174.54704,-78.450866)"><rect
           style="fill:none;fill-opacity:1;stroke:#6ebe4a;stroke-width:0.69687;stroke-dasharray:none;stroke-opacity:1"
           id="rect12345-3-9"
           width="131.59479"
           height="25.761463"
           x="174.89548"
           y="78.799301"
           ry="3.9575877" /><text
           xml:space="preserve"
           style="font-weight:bold;font-size:11.9062px;font-family:Ubuntu;-inkscape-font-specification:'Ubuntu Bold';fill:#6ebe4a;fill-opacity:1;stroke-width:1.04537"
           x="190.96455"
           y="95.160309"
           id="text3874-3-5-1"><tspan
             sodipodi:role="line"
             style="font-style:normal;font-variant:normal;font-weight:normal;font-stretch:normal;font-size:11.9062px;font-family:Ubuntu;-inkscape-font-specification:Ubuntu;fill:#6ebe4a;fill-opacity:1;stroke-width:1.04537"
             x="190.96455"
             y="95.160309"
             id="tspan6104-6-6-2">Software engineer</tspan></text></g></g></g></svg>
