<?xml version="1.0" encoding="UTF-8" standalone="no"?>
<svg
   width="24"
   height="24"
   viewBox="0 0 24 24"
   version="1.1"
   id="svg52"
   sodipodi:docname="bxl-visual-studio.svg"
   inkscape:version="1.2.2 (732a01da63, 2022-12-09, custom)"
   xmlns:inkscape="http://www.inkscape.org/namespaces/inkscape"
   xmlns:sodipodi="http://sodipodi.sourceforge.net/DTD/sodipodi-0.dtd"
   xmlns="http://www.w3.org/2000/svg"
   xmlns:svg="http://www.w3.org/2000/svg">
  <defs
     id="defs56" />
  <sodipodi:namedview
     id="namedview54"
     pagecolor="#505050"
     bordercolor="#eeeeee"
     borderopacity="1"
     inkscape:showpageshadow="0"
     inkscape:pageopacity="0"
     inkscape:pagecheckerboard="0"
     inkscape:deskcolor="#505050"
     showgrid="false"
     inkscape:zoom="9.8333333"
     inkscape:cx="12"
     inkscape:cy="12.050847"
     inkscape:window-width="1440"
     inkscape:window-height="836"
     inkscape:window-x="0"
     inkscape:window-y="0"
     inkscape:window-maximized="1"
     inkscape:current-layer="svg52" />
  <path
     d="m21.29 4.1-4.12-2a1.36 1.36 0 0 0-.48-.1h-.08a1.18 1.18 0 0 0-.72.24l-.14.12-7.88 7.19L4.44 7a.83.83 0 0 0-.54-.17.88.88 0 0 0-.53.17l-1.1 1a.8.8 0 0 0-.27.61.84.84 0 0 0 .27.62l3 2.71-3 2.72a.84.84 0 0 0 0 1.23l1.1 1a.89.89 0 0 0 .6.22.93.93 0 0 0 .47-.17l3.43-2.61 7.88 7.19a1.2 1.2 0 0 0 .76.36h.17a1 1 0 0 0 .49-.12l4.12-2a1.25 1.25 0 0 0 .71-1.1V5.23a1.26 1.26 0 0 0-.71-1.13zM17 16.47l-6-4.53 6-4.53z"
     id="path50"
     style="fill:#007acc;fill-opacity:1" />
</svg>
